<?xml version="1.0" encoding="UTF-8"?>
<svg xmlns="http://www.w3.org/2000/svg" xmlns:xlink="http://www.w3.org/1999/xlink" width="1920" height="1080" viewBox="0 0 1920 1080">
<defs>
<g>
<g id="glyph-0-0">
<path d="M 0.0429688 -2.980469 L 1.292969 -2.980469 L 1.292969 -2.859375 C 1.175781 -2.851562 1.101562 -2.832031 1.066406 -2.800781 C 1.03125 -2.765625 1.011719 -2.71875 1.011719 -2.660156 C 1.011719 -2.59375 1.03125 -2.511719 1.066406 -2.414062 L 1.707031 -0.699219 L 2.347656 -2.097656 L 2.179688 -2.535156 C 2.125 -2.664062 2.058594 -2.757812 1.972656 -2.804688 C 1.925781 -2.835938 1.835938 -2.855469 1.707031 -2.859375 L 1.707031 -2.980469 L 3.125 -2.980469 L 3.125 -2.859375 C 2.96875 -2.855469 2.859375 -2.828125 2.792969 -2.777344 C 2.75 -2.742188 2.726562 -2.6875 2.726562 -2.609375 C 2.726562 -2.566406 2.738281 -2.523438 2.753906 -2.476562 L 3.429688 -0.765625 L 4.058594 -2.414062 C 4.101562 -2.53125 4.125 -2.625 4.125 -2.695312 C 4.125 -2.738281 4.101562 -2.773438 4.0625 -2.804688 C 4.019531 -2.839844 3.933594 -2.855469 3.8125 -2.859375 L 3.8125 -2.980469 L 4.753906 -2.980469 L 4.753906 -2.859375 C 4.5625 -2.832031 4.425781 -2.703125 4.335938 -2.476562 L 3.339844 0.0898438 L 3.207031 0.0898438 L 2.460938 -1.8125 L 1.589844 0.0898438 L 1.472656 0.0898438 L 0.515625 -2.414062 C 0.453125 -2.574219 0.390625 -2.679688 0.328125 -2.734375 C 0.269531 -2.792969 0.171875 -2.832031 0.0429688 -2.859375 Z "/>
</g>
<g id="glyph-0-1">
</g>
<g id="glyph-0-2">
<path d="M 2.070312 1.304688 L 2.070312 1.425781 C 1.742188 1.261719 1.46875 1.066406 1.25 0.847656 C 0.9375 0.53125 0.695312 0.160156 0.527344 -0.265625 C 0.359375 -0.695312 0.273438 -1.136719 0.273438 -1.597656 C 0.273438 -2.269531 0.4375 -2.882812 0.769531 -3.4375 C 1.101562 -3.992188 1.535156 -4.390625 2.070312 -4.628906 L 2.070312 -4.492188 C 1.804688 -4.34375 1.585938 -4.144531 1.414062 -3.886719 C 1.242188 -3.628906 1.113281 -3.304688 1.027344 -2.914062 C 0.945312 -2.519531 0.902344 -2.109375 0.902344 -1.683594 C 0.902344 -1.21875 0.9375 -0.796875 1.007812 -0.417969 C 1.066406 -0.117188 1.132812 0.125 1.214844 0.304688 C 1.292969 0.484375 1.402344 0.660156 1.539062 0.828125 C 1.671875 0.992188 1.851562 1.152344 2.070312 1.304688 Z "/>
</g>
<g id="glyph-0-3">
<path d="M 0.710938 -1.859375 C 0.707031 -1.414062 0.816406 -1.070312 1.03125 -0.816406 C 1.25 -0.566406 1.503906 -0.4375 1.796875 -0.4375 C 1.992188 -0.4375 2.160156 -0.492188 2.304688 -0.601562 C 2.449219 -0.707031 2.570312 -0.890625 2.667969 -1.152344 L 2.769531 -1.085938 C 2.722656 -0.789062 2.59375 -0.519531 2.375 -0.273438 C 2.152344 -0.03125 1.878906 0.0898438 1.550781 0.0898438 C 1.191406 0.0898438 0.886719 -0.046875 0.628906 -0.328125 C 0.375 -0.605469 0.246094 -0.980469 0.246094 -1.453125 C 0.246094 -1.960938 0.378906 -2.359375 0.640625 -2.644531 C 0.902344 -2.929688 1.230469 -3.074219 1.625 -3.074219 C 1.957031 -3.074219 2.234375 -2.960938 2.449219 -2.742188 C 2.664062 -2.523438 2.769531 -2.226562 2.769531 -1.859375 L 0.710938 -1.859375 M 0.710938 -2.046875 L 2.089844 -2.046875 C 2.078125 -2.238281 2.054688 -2.375 2.023438 -2.453125 C 1.96875 -2.574219 1.886719 -2.667969 1.777344 -2.738281 C 1.671875 -2.808594 1.558594 -2.839844 1.441406 -2.839844 C 1.261719 -2.839844 1.101562 -2.773438 0.957031 -2.632812 C 0.816406 -2.492188 0.734375 -2.296875 0.710938 -2.046875 Z "/>
</g>
<g id="glyph-0-4">
<path d="M 0.964844 -4.628906 C 1.058594 -4.628906 1.136719 -4.597656 1.199219 -4.53125 C 1.261719 -4.46875 1.296875 -4.390625 1.296875 -4.300781 C 1.296875 -4.210938 1.261719 -4.132812 1.199219 -4.066406 C 1.136719 -4 1.058594 -3.96875 0.964844 -3.96875 C 0.875 -3.96875 0.796875 -4 0.730469 -4.066406 C 0.667969 -4.132812 0.632812 -4.210938 0.632812 -4.300781 C 0.632812 -4.390625 0.667969 -4.46875 0.730469 -4.53125 C 0.792969 -4.597656 0.875 -4.628906 0.964844 -4.628906 M 1.238281 -3.070312 L 1.238281 -0.671875 C 1.238281 -0.488281 1.25 -0.363281 1.277344 -0.300781 C 1.304688 -0.238281 1.34375 -0.191406 1.398438 -0.164062 C 1.453125 -0.132812 1.546875 -0.117188 1.6875 -0.117188 L 1.6875 0 L 0.242188 0 L 0.242188 -0.117188 C 0.386719 -0.117188 0.484375 -0.132812 0.535156 -0.160156 C 0.582031 -0.1875 0.625 -0.234375 0.652344 -0.300781 C 0.683594 -0.363281 0.695312 -0.488281 0.695312 -0.671875 L 0.695312 -1.824219 C 0.695312 -2.144531 0.6875 -2.355469 0.667969 -2.453125 C 0.652344 -2.519531 0.628906 -2.570312 0.59375 -2.597656 C 0.5625 -2.625 0.519531 -2.636719 0.460938 -2.636719 C 0.402344 -2.636719 0.328125 -2.621094 0.242188 -2.585938 L 0.195312 -2.703125 L 1.09375 -3.070312 Z "/>
</g>
<g id="glyph-0-5">
<path d="M 1.007812 -1.085938 C 0.824219 -1.175781 0.683594 -1.300781 0.585938 -1.460938 C 0.488281 -1.621094 0.4375 -1.796875 0.4375 -1.988281 C 0.4375 -2.285156 0.550781 -2.539062 0.773438 -2.75 C 0.996094 -2.964844 1.28125 -3.070312 1.628906 -3.070312 C 1.910156 -3.070312 2.15625 -3 2.367188 -2.859375 L 2.996094 -2.859375 C 3.089844 -2.859375 3.144531 -2.859375 3.160156 -2.851562 C 3.175781 -2.847656 3.1875 -2.839844 3.191406 -2.824219 C 3.207031 -2.804688 3.210938 -2.769531 3.210938 -2.722656 C 3.210938 -2.664062 3.207031 -2.625 3.195312 -2.605469 C 3.191406 -2.59375 3.179688 -2.585938 3.164062 -2.578125 C 3.144531 -2.570312 3.089844 -2.566406 2.996094 -2.566406 L 2.609375 -2.566406 C 2.730469 -2.414062 2.792969 -2.210938 2.792969 -1.96875 C 2.792969 -1.691406 2.6875 -1.453125 2.472656 -1.257812 C 2.261719 -1.058594 1.976562 -0.960938 1.617188 -0.960938 C 1.46875 -0.960938 1.320312 -0.980469 1.164062 -1.023438 C 1.070312 -0.941406 1.003906 -0.871094 0.972656 -0.808594 C 0.9375 -0.746094 0.921875 -0.695312 0.921875 -0.652344 C 0.921875 -0.613281 0.9375 -0.578125 0.976562 -0.542969 C 1.011719 -0.507812 1.082031 -0.484375 1.183594 -0.46875 C 1.246094 -0.460938 1.398438 -0.453125 1.640625 -0.445312 C 2.085938 -0.433594 2.378906 -0.417969 2.507812 -0.398438 C 2.710938 -0.371094 2.871094 -0.296875 2.992188 -0.175781 C 3.113281 -0.0546875 3.171875 0.09375 3.171875 0.273438 C 3.171875 0.519531 3.058594 0.75 2.828125 0.964844 C 2.492188 1.28125 2.046875 1.4375 1.503906 1.4375 C 1.085938 1.4375 0.730469 1.34375 0.441406 1.15625 C 0.28125 1.046875 0.199219 0.933594 0.199219 0.816406 C 0.199219 0.765625 0.210938 0.710938 0.234375 0.660156 C 0.269531 0.582031 0.347656 0.46875 0.460938 0.324219 C 0.476562 0.304688 0.589844 0.1875 0.792969 -0.0273438 C 0.679688 -0.09375 0.601562 -0.152344 0.554688 -0.207031 C 0.507812 -0.261719 0.484375 -0.320312 0.484375 -0.386719 C 0.484375 -0.464844 0.515625 -0.550781 0.578125 -0.652344 C 0.640625 -0.757812 0.78125 -0.902344 1.007812 -1.085938 M 1.570312 -2.914062 C 1.410156 -2.914062 1.277344 -2.847656 1.167969 -2.722656 C 1.058594 -2.59375 1.007812 -2.398438 1.007812 -2.132812 C 1.007812 -1.789062 1.078125 -1.523438 1.226562 -1.335938 C 1.339844 -1.191406 1.484375 -1.121094 1.65625 -1.121094 C 1.820312 -1.121094 1.957031 -1.179688 2.0625 -1.304688 C 2.171875 -1.429688 2.222656 -1.625 2.222656 -1.886719 C 2.222656 -2.234375 2.148438 -2.503906 2 -2.699219 C 1.886719 -2.839844 1.746094 -2.914062 1.570312 -2.914062 M 0.972656 0 C 0.871094 0.109375 0.792969 0.214844 0.742188 0.308594 C 0.691406 0.40625 0.664062 0.492188 0.664062 0.574219 C 0.664062 0.675781 0.726562 0.769531 0.851562 0.847656 C 1.070312 0.980469 1.382812 1.046875 1.792969 1.046875 C 2.183594 1.046875 2.472656 0.980469 2.65625 0.839844 C 2.84375 0.703125 2.9375 0.554688 2.9375 0.398438 C 2.9375 0.289062 2.878906 0.207031 2.769531 0.160156 C 2.65625 0.113281 2.433594 0.0820312 2.101562 0.0742188 C 1.609375 0.0625 1.234375 0.0351562 0.972656 0 Z "/>
</g>
<g id="glyph-0-6">
<path d="M 1.085938 -4.628906 L 1.085938 -2.449219 C 1.324219 -2.710938 1.515625 -2.882812 1.65625 -2.957031 C 1.796875 -3.03125 1.9375 -3.070312 2.078125 -3.070312 C 2.25 -3.070312 2.394531 -3.023438 2.515625 -2.929688 C 2.636719 -2.835938 2.726562 -2.691406 2.785156 -2.492188 C 2.828125 -2.351562 2.847656 -2.097656 2.847656 -1.726562 L 2.847656 -0.671875 C 2.847656 -0.484375 2.863281 -0.355469 2.894531 -0.285156 C 2.914062 -0.234375 2.953125 -0.191406 3.003906 -0.164062 C 3.054688 -0.132812 3.152344 -0.117188 3.289062 -0.117188 L 3.289062 0 L 1.824219 0 L 1.824219 -0.117188 L 1.894531 -0.117188 C 2.035156 -0.117188 2.128906 -0.136719 2.183594 -0.179688 C 2.238281 -0.222656 2.277344 -0.285156 2.296875 -0.367188 C 2.304688 -0.402344 2.308594 -0.503906 2.308594 -0.671875 L 2.308594 -1.726562 C 2.308594 -2.054688 2.292969 -2.269531 2.257812 -2.371094 C 2.222656 -2.472656 2.171875 -2.546875 2.097656 -2.597656 C 2.023438 -2.648438 1.933594 -2.675781 1.828125 -2.675781 C 1.722656 -2.675781 1.613281 -2.648438 1.496094 -2.589844 C 1.382812 -2.535156 1.246094 -2.421875 1.085938 -2.25 L 1.085938 -0.671875 C 1.085938 -0.46875 1.09375 -0.34375 1.117188 -0.292969 C 1.140625 -0.242188 1.183594 -0.203125 1.246094 -0.167969 C 1.308594 -0.132812 1.414062 -0.117188 1.566406 -0.117188 L 1.566406 0 L 0.0859375 0 L 0.0859375 -0.117188 C 0.21875 -0.117188 0.324219 -0.136719 0.398438 -0.179688 C 0.445312 -0.199219 0.476562 -0.242188 0.503906 -0.304688 C 0.53125 -0.363281 0.542969 -0.488281 0.542969 -0.671875 L 0.542969 -3.371094 C 0.542969 -3.714844 0.535156 -3.921875 0.519531 -4 C 0.503906 -4.078125 0.476562 -4.132812 0.445312 -4.160156 C 0.410156 -4.1875 0.367188 -4.203125 0.308594 -4.203125 C 0.265625 -4.203125 0.191406 -4.183594 0.0859375 -4.148438 L 0.0429688 -4.265625 L 0.933594 -4.628906 Z "/>
</g>
<g id="glyph-0-7">
<path d="M 1.074219 -3.960938 L 1.074219 -2.980469 L 1.769531 -2.980469 L 1.769531 -2.753906 L 1.074219 -2.753906 L 1.074219 -0.820312 C 1.074219 -0.628906 1.101562 -0.496094 1.15625 -0.429688 C 1.210938 -0.363281 1.285156 -0.328125 1.371094 -0.328125 C 1.441406 -0.328125 1.511719 -0.351562 1.578125 -0.394531 C 1.644531 -0.441406 1.699219 -0.503906 1.734375 -0.59375 L 1.863281 -0.59375 C 1.785156 -0.378906 1.679688 -0.21875 1.539062 -0.113281 C 1.402344 -0.00390625 1.257812 0.046875 1.109375 0.046875 C 1.011719 0.046875 0.914062 0.0195312 0.816406 -0.0351562 C 0.722656 -0.0898438 0.652344 -0.167969 0.605469 -0.273438 C 0.558594 -0.375 0.539062 -0.535156 0.539062 -0.75 L 0.539062 -2.753906 L 0.0664062 -2.753906 L 0.0664062 -2.859375 C 0.183594 -2.910156 0.304688 -2.988281 0.429688 -3.105469 C 0.554688 -3.21875 0.667969 -3.351562 0.765625 -3.507812 C 0.816406 -3.589844 0.882812 -3.742188 0.972656 -3.960938 Z "/>
</g>
<g id="glyph-0-8">
<path d="M 0.148438 -4.492188 L 0.148438 -4.628906 C 0.480469 -4.464844 0.753906 -4.273438 0.972656 -4.054688 C 1.285156 -3.734375 1.523438 -3.363281 1.691406 -2.9375 C 1.863281 -2.511719 1.945312 -2.066406 1.945312 -1.605469 C 1.945312 -0.933594 1.78125 -0.320312 1.449219 0.234375 C 1.121094 0.789062 0.6875 1.1875 0.148438 1.425781 L 0.148438 1.304688 C 0.417969 1.15625 0.636719 0.953125 0.808594 0.699219 C 0.980469 0.441406 1.109375 0.117188 1.191406 -0.273438 C 1.277344 -0.667969 1.316406 -1.078125 1.316406 -1.507812 C 1.316406 -1.96875 1.28125 -2.390625 1.210938 -2.773438 C 1.15625 -3.074219 1.089844 -3.3125 1.007812 -3.492188 C 0.925781 -3.671875 0.816406 -3.847656 0.683594 -4.015625 C 0.550781 -4.179688 0.371094 -4.339844 0.148438 -4.492188 Z "/>
</g>
</g>
</defs>
<g fill="rgb(53.333333%, 53.333333%, 53.333333%)" fill-opacity="1">
<use xlink:href="#glyph-0-0" x="30" y="25.94043"/>
<use xlink:href="#glyph-0-1" x="35" y="25.94043"/>
<use xlink:href="#glyph-0-2" x="37" y="25.94043"/>
<use xlink:href="#glyph-0-0" x="39" y="25.94043"/>
<use xlink:href="#glyph-0-3" x="44" y="25.94043"/>
<use xlink:href="#glyph-0-4" x="47" y="25.94043"/>
<use xlink:href="#glyph-0-5" x="49" y="25.94043"/>
<use xlink:href="#glyph-0-6" x="52" y="25.94043"/>
<use xlink:href="#glyph-0-7" x="55" y="25.94043"/>
<use xlink:href="#glyph-0-8" x="57" y="25.94043"/>
</g>
</svg>
