<?xml version="1.0" encoding="UTF-8"?>
<svg xmlns="http://www.w3.org/2000/svg" xmlns:xlink="http://www.w3.org/1999/xlink" width="1920" height="1080" viewBox="0 0 1920 1080">
<defs>
<g>
<g id="glyph-0-0">
<path d="M 3.820312 -1.21875 L 3.929688 -1.199219 L 3.550781 0 L 0.132812 0 L 0.132812 -0.121094 L 0.300781 -0.121094 C 0.484375 -0.121094 0.621094 -0.179688 0.699219 -0.304688 C 0.746094 -0.371094 0.769531 -0.53125 0.769531 -0.785156 L 0.769531 -3.632812 C 0.769531 -3.910156 0.738281 -4.082031 0.675781 -4.148438 C 0.59375 -4.246094 0.464844 -4.292969 0.300781 -4.292969 L 0.132812 -4.292969 L 0.132812 -4.414062 L 2.132812 -4.414062 L 2.132812 -4.292969 C 1.898438 -4.296875 1.734375 -4.273438 1.640625 -4.226562 C 1.542969 -4.183594 1.480469 -4.125 1.445312 -4.054688 C 1.410156 -3.988281 1.394531 -3.820312 1.394531 -3.558594 L 1.394531 -0.785156 C 1.394531 -0.605469 1.410156 -0.480469 1.445312 -0.414062 C 1.472656 -0.367188 1.511719 -0.335938 1.566406 -0.3125 C 1.621094 -0.289062 1.789062 -0.28125 2.074219 -0.28125 L 2.394531 -0.28125 C 2.734375 -0.28125 2.972656 -0.304688 3.109375 -0.355469 C 3.246094 -0.40625 3.371094 -0.492188 3.484375 -0.621094 C 3.597656 -0.746094 3.707031 -0.945312 3.820312 -1.21875 Z "/>
</g>
<g id="glyph-0-1">
<path d="M 2.070312 1.304688 L 2.070312 1.425781 C 1.742188 1.261719 1.46875 1.066406 1.25 0.847656 C 0.9375 0.53125 0.695312 0.160156 0.527344 -0.265625 C 0.359375 -0.695312 0.273438 -1.136719 0.273438 -1.597656 C 0.273438 -2.269531 0.4375 -2.882812 0.769531 -3.4375 C 1.101562 -3.992188 1.535156 -4.390625 2.070312 -4.628906 L 2.070312 -4.492188 C 1.804688 -4.34375 1.585938 -4.144531 1.414062 -3.886719 C 1.242188 -3.628906 1.113281 -3.304688 1.027344 -2.914062 C 0.945312 -2.519531 0.902344 -2.109375 0.902344 -1.683594 C 0.902344 -1.21875 0.9375 -0.796875 1.007812 -0.417969 C 1.066406 -0.117188 1.132812 0.125 1.214844 0.304688 C 1.292969 0.484375 1.402344 0.660156 1.539062 0.828125 C 1.671875 0.992188 1.851562 1.152344 2.070312 1.304688 Z "/>
</g>
<g id="glyph-0-2">
<path d="M 0.0429688 -2.980469 L 1.292969 -2.980469 L 1.292969 -2.859375 C 1.175781 -2.851562 1.101562 -2.832031 1.066406 -2.800781 C 1.03125 -2.765625 1.011719 -2.71875 1.011719 -2.660156 C 1.011719 -2.59375 1.03125 -2.511719 1.066406 -2.414062 L 1.707031 -0.699219 L 2.347656 -2.097656 L 2.179688 -2.535156 C 2.125 -2.664062 2.058594 -2.757812 1.972656 -2.804688 C 1.925781 -2.835938 1.835938 -2.855469 1.707031 -2.859375 L 1.707031 -2.980469 L 3.125 -2.980469 L 3.125 -2.859375 C 2.96875 -2.855469 2.859375 -2.828125 2.792969 -2.777344 C 2.75 -2.742188 2.726562 -2.6875 2.726562 -2.609375 C 2.726562 -2.566406 2.738281 -2.523438 2.753906 -2.476562 L 3.429688 -0.765625 L 4.058594 -2.414062 C 4.101562 -2.53125 4.125 -2.625 4.125 -2.695312 C 4.125 -2.738281 4.101562 -2.773438 4.0625 -2.804688 C 4.019531 -2.839844 3.933594 -2.855469 3.8125 -2.859375 L 3.8125 -2.980469 L 4.753906 -2.980469 L 4.753906 -2.859375 C 4.5625 -2.832031 4.425781 -2.703125 4.335938 -2.476562 L 3.339844 0.0898438 L 3.207031 0.0898438 L 2.460938 -1.8125 L 1.589844 0.0898438 L 1.472656 0.0898438 L 0.515625 -2.414062 C 0.453125 -2.574219 0.390625 -2.679688 0.328125 -2.734375 C 0.269531 -2.792969 0.171875 -2.832031 0.0429688 -2.859375 Z "/>
</g>
<g id="glyph-0-3">
<path d="M 0.148438 -4.492188 L 0.148438 -4.628906 C 0.480469 -4.464844 0.753906 -4.273438 0.972656 -4.054688 C 1.285156 -3.734375 1.523438 -3.363281 1.691406 -2.9375 C 1.863281 -2.511719 1.945312 -2.066406 1.945312 -1.605469 C 1.945312 -0.933594 1.78125 -0.320312 1.449219 0.234375 C 1.121094 0.789062 0.6875 1.1875 0.148438 1.425781 L 0.148438 1.304688 C 0.417969 1.15625 0.636719 0.953125 0.808594 0.699219 C 0.980469 0.441406 1.109375 0.117188 1.191406 -0.273438 C 1.277344 -0.667969 1.316406 -1.078125 1.316406 -1.507812 C 1.316406 -1.96875 1.28125 -2.390625 1.210938 -2.773438 C 1.15625 -3.074219 1.089844 -3.3125 1.007812 -3.492188 C 0.925781 -3.671875 0.816406 -3.847656 0.683594 -4.015625 C 0.550781 -4.179688 0.371094 -4.339844 0.148438 -4.492188 Z "/>
</g>
</g>
</defs>
<g fill="rgb(53.333333%, 53.333333%, 53.333333%)" fill-opacity="1">
<use xlink:href="#glyph-0-0" x="30" y="25.94043"/>
<use xlink:href="#glyph-0-1" x="34" y="25.94043"/>
<use xlink:href="#glyph-0-2" x="36" y="25.94043"/>
<use xlink:href="#glyph-0-3" x="41" y="25.94043"/>
</g>
</svg>
