<?xml version="1.0" encoding="UTF-8"?>
<svg xmlns="http://www.w3.org/2000/svg" xmlns:xlink="http://www.w3.org/1999/xlink" width="854" height="480" viewBox="0 0 854 480">
<defs>
<g>
<g id="glyph-0-0">
<path d="M 4.25 0 L 2.652344 0 L 2.652344 -0.191406 C 2.695312 -0.195312 2.757812 -0.203125 2.839844 -0.207031 C 2.925781 -0.214844 2.980469 -0.226562 3.011719 -0.242188 C 3.066406 -0.261719 3.105469 -0.296875 3.128906 -0.339844 C 3.15625 -0.386719 3.167969 -0.441406 3.167969 -0.511719 L 3.167969 -1.882812 L 1.359375 -1.882812 L 1.359375 -0.542969 C 1.359375 -0.480469 1.371094 -0.425781 1.390625 -0.382812 C 1.410156 -0.339844 1.453125 -0.300781 1.515625 -0.269531 C 1.542969 -0.253906 1.597656 -0.234375 1.679688 -0.21875 C 1.757812 -0.203125 1.820312 -0.195312 1.863281 -0.191406 L 1.863281 0 L 0.265625 0 L 0.265625 -0.191406 C 0.308594 -0.195312 0.371094 -0.203125 0.453125 -0.207031 C 0.535156 -0.214844 0.59375 -0.226562 0.625 -0.242188 C 0.679688 -0.261719 0.71875 -0.296875 0.742188 -0.339844 C 0.769531 -0.386719 0.78125 -0.441406 0.78125 -0.511719 L 0.78125 -3.289062 C 0.78125 -3.347656 0.769531 -3.402344 0.746094 -3.449219 C 0.722656 -3.496094 0.683594 -3.535156 0.625 -3.5625 C 0.574219 -3.585938 0.515625 -3.605469 0.445312 -3.625 C 0.375 -3.640625 0.316406 -3.652344 0.265625 -3.65625 L 0.265625 -3.847656 L 1.863281 -3.847656 L 1.863281 -3.65625 C 1.8125 -3.65625 1.75 -3.648438 1.679688 -3.632812 C 1.605469 -3.617188 1.550781 -3.605469 1.515625 -3.59375 C 1.453125 -3.570312 1.410156 -3.535156 1.390625 -3.484375 C 1.371094 -3.433594 1.359375 -3.378906 1.359375 -3.316406 L 1.359375 -2.125 L 3.167969 -2.125 L 3.167969 -3.289062 C 3.167969 -3.347656 3.15625 -3.402344 3.132812 -3.449219 C 3.109375 -3.496094 3.070312 -3.535156 3.011719 -3.5625 C 2.960938 -3.585938 2.902344 -3.605469 2.832031 -3.625 C 2.765625 -3.640625 2.703125 -3.652344 2.652344 -3.65625 L 2.652344 -3.847656 L 4.25 -3.847656 L 4.25 -3.65625 C 4.199219 -3.65625 4.136719 -3.648438 4.066406 -3.632812 C 3.992188 -3.617188 3.9375 -3.605469 3.902344 -3.59375 C 3.839844 -3.570312 3.796875 -3.535156 3.777344 -3.484375 C 3.757812 -3.433594 3.746094 -3.378906 3.746094 -3.316406 L 3.746094 -0.542969 C 3.746094 -0.480469 3.757812 -0.425781 3.777344 -0.382812 C 3.796875 -0.339844 3.839844 -0.300781 3.902344 -0.269531 C 3.933594 -0.253906 3.988281 -0.234375 4.066406 -0.21875 C 4.144531 -0.203125 4.207031 -0.195312 4.25 -0.191406 Z "/>
</g>
<g id="glyph-0-1">
<path d="M 1.492188 0 L 0.199219 0 L 0.199219 -0.179688 C 0.242188 -0.183594 0.285156 -0.1875 0.328125 -0.191406 C 0.375 -0.195312 0.414062 -0.199219 0.445312 -0.210938 C 0.496094 -0.226562 0.53125 -0.257812 0.558594 -0.296875 C 0.582031 -0.335938 0.59375 -0.390625 0.59375 -0.457031 L 0.59375 -2.105469 C 0.59375 -2.164062 0.582031 -2.214844 0.554688 -2.265625 C 0.527344 -2.3125 0.492188 -2.351562 0.445312 -2.382812 C 0.410156 -2.40625 0.359375 -2.425781 0.296875 -2.441406 C 0.230469 -2.457031 0.171875 -2.464844 0.117188 -2.46875 L 0.117188 -2.648438 L 1.0625 -2.707031 L 1.097656 -2.667969 L 1.097656 -0.488281 C 1.097656 -0.425781 1.109375 -0.371094 1.136719 -0.332031 C 1.160156 -0.289062 1.199219 -0.257812 1.25 -0.238281 C 1.289062 -0.222656 1.328125 -0.210938 1.367188 -0.199219 C 1.402344 -0.1875 1.445312 -0.183594 1.492188 -0.179688 L 1.492188 0 M 1.152344 -3.761719 C 1.152344 -3.660156 1.117188 -3.570312 1.050781 -3.492188 C 0.984375 -3.414062 0.898438 -3.378906 0.800781 -3.378906 C 0.707031 -3.378906 0.628906 -3.414062 0.558594 -3.488281 C 0.492188 -3.5625 0.457031 -3.644531 0.457031 -3.738281 C 0.457031 -3.835938 0.492188 -3.925781 0.558594 -4 C 0.628906 -4.074219 0.707031 -4.109375 0.800781 -4.109375 C 0.902344 -4.109375 0.988281 -4.074219 1.054688 -4.003906 C 1.121094 -3.9375 1.152344 -3.855469 1.152344 -3.761719 Z "/>
</g>
<g id="glyph-0-2">
<path d="M 3.125 -0.0507812 L 2.1875 0.0117188 L 2.148438 -0.0273438 L 2.148438 -0.277344 L 2.125 -0.28125 C 2.03125 -0.175781 1.917969 -0.0898438 1.777344 -0.0234375 C 1.640625 0.0429688 1.5 0.0742188 1.351562 0.0742188 C 1.199219 0.0742188 1.054688 0.0429688 0.910156 -0.0273438 C 0.769531 -0.09375 0.648438 -0.1875 0.542969 -0.3125 C 0.433594 -0.4375 0.351562 -0.585938 0.289062 -0.761719 C 0.226562 -0.9375 0.195312 -1.132812 0.195312 -1.34375 C 0.195312 -1.535156 0.230469 -1.71875 0.296875 -1.894531 C 0.363281 -2.066406 0.453125 -2.21875 0.570312 -2.347656 C 0.683594 -2.46875 0.816406 -2.566406 0.976562 -2.640625 C 1.136719 -2.710938 1.300781 -2.75 1.464844 -2.75 C 1.589844 -2.75 1.710938 -2.730469 1.832031 -2.699219 C 1.953125 -2.667969 2.054688 -2.628906 2.144531 -2.578125 L 2.144531 -3.511719 C 2.144531 -3.589844 2.128906 -3.65625 2.105469 -3.71875 C 2.078125 -3.78125 2.042969 -3.832031 2 -3.863281 C 1.949219 -3.898438 1.878906 -3.921875 1.792969 -3.9375 C 1.707031 -3.953125 1.617188 -3.964844 1.515625 -3.972656 L 1.515625 -4.140625 L 2.613281 -4.199219 L 2.652344 -4.160156 L 2.652344 -0.554688 C 2.652344 -0.488281 2.664062 -0.4375 2.691406 -0.390625 C 2.714844 -0.347656 2.75 -0.308594 2.796875 -0.28125 C 2.832031 -0.257812 2.882812 -0.246094 2.945312 -0.238281 C 3.011719 -0.234375 3.070312 -0.230469 3.125 -0.226562 L 3.125 -0.0507812 M 2.144531 -0.519531 L 2.144531 -2.082031 C 2.128906 -2.128906 2.105469 -2.179688 2.074219 -2.234375 C 2.039062 -2.289062 2 -2.339844 1.949219 -2.382812 C 1.898438 -2.429688 1.835938 -2.46875 1.765625 -2.496094 C 1.695312 -2.527344 1.613281 -2.542969 1.519531 -2.542969 C 1.414062 -2.542969 1.3125 -2.515625 1.222656 -2.457031 C 1.128906 -2.402344 1.050781 -2.320312 0.980469 -2.214844 C 0.914062 -2.113281 0.859375 -1.984375 0.820312 -1.828125 C 0.78125 -1.671875 0.761719 -1.5 0.761719 -1.308594 C 0.761719 -1.160156 0.777344 -1.019531 0.804688 -0.898438 C 0.835938 -0.773438 0.882812 -0.65625 0.953125 -0.550781 C 1.015625 -0.449219 1.097656 -0.367188 1.195312 -0.304688 C 1.292969 -0.246094 1.410156 -0.214844 1.542969 -0.214844 C 1.6875 -0.214844 1.808594 -0.246094 1.902344 -0.308594 C 2 -0.371094 2.078125 -0.441406 2.144531 -0.519531 Z "/>
</g>
<g id="glyph-0-3">
<path d="M 2.570312 -0.628906 C 2.460938 -0.414062 2.308594 -0.246094 2.121094 -0.121094 C 1.933594 0.0078125 1.71875 0.0703125 1.472656 0.0703125 C 1.257812 0.0703125 1.070312 0.03125 0.90625 -0.0429688 C 0.746094 -0.121094 0.613281 -0.222656 0.507812 -0.351562 C 0.402344 -0.484375 0.324219 -0.636719 0.273438 -0.808594 C 0.222656 -0.980469 0.195312 -1.164062 0.195312 -1.359375 C 0.195312 -1.53125 0.222656 -1.703125 0.277344 -1.871094 C 0.332031 -2.039062 0.414062 -2.1875 0.519531 -2.320312 C 0.625 -2.449219 0.75 -2.554688 0.90625 -2.632812 C 1.058594 -2.710938 1.230469 -2.75 1.417969 -2.75 C 1.613281 -2.75 1.78125 -2.71875 1.921875 -2.660156 C 2.058594 -2.597656 2.171875 -2.511719 2.261719 -2.40625 C 2.34375 -2.304688 2.40625 -2.1875 2.445312 -2.046875 C 2.488281 -1.910156 2.507812 -1.761719 2.507812 -1.601562 L 2.507812 -1.421875 L 0.734375 -1.421875 C 0.734375 -1.246094 0.75 -1.085938 0.785156 -0.941406 C 0.820312 -0.800781 0.871094 -0.671875 0.945312 -0.566406 C 1.015625 -0.460938 1.105469 -0.378906 1.222656 -0.316406 C 1.335938 -0.253906 1.46875 -0.226562 1.628906 -0.226562 C 1.789062 -0.226562 1.925781 -0.261719 2.042969 -0.339844 C 2.160156 -0.414062 2.273438 -0.550781 2.382812 -0.746094 L 2.570312 -0.628906 M 1.972656 -1.648438 C 1.972656 -1.75 1.964844 -1.859375 1.945312 -1.972656 C 1.929688 -2.089844 1.902344 -2.1875 1.863281 -2.261719 C 1.820312 -2.347656 1.765625 -2.414062 1.691406 -2.464844 C 1.621094 -2.519531 1.527344 -2.542969 1.414062 -2.542969 C 1.222656 -2.542969 1.066406 -2.464844 0.941406 -2.308594 C 0.8125 -2.148438 0.746094 -1.929688 0.734375 -1.648438 Z "/>
</g>
<g id="glyph-0-4">
<path d="M 3.148438 0 L 1.84375 0 L 1.84375 -0.179688 C 1.882812 -0.183594 1.929688 -0.1875 1.980469 -0.191406 C 2.027344 -0.195312 2.070312 -0.199219 2.101562 -0.210938 C 2.152344 -0.226562 2.191406 -0.257812 2.214844 -0.296875 C 2.238281 -0.335938 2.25 -0.390625 2.25 -0.457031 L 2.25 -1.832031 C 2.25 -2.019531 2.207031 -2.167969 2.117188 -2.269531 C 2.027344 -2.375 1.917969 -2.425781 1.789062 -2.425781 C 1.691406 -2.425781 1.605469 -2.410156 1.527344 -2.378906 C 1.445312 -2.351562 1.375 -2.3125 1.3125 -2.269531 C 1.253906 -2.230469 1.207031 -2.183594 1.171875 -2.136719 C 1.136719 -2.089844 1.109375 -2.050781 1.09375 -2.019531 L 1.09375 -0.484375 C 1.09375 -0.421875 1.105469 -0.371094 1.132812 -0.332031 C 1.15625 -0.292969 1.195312 -0.261719 1.246094 -0.238281 C 1.28125 -0.21875 1.324219 -0.207031 1.367188 -0.199219 C 1.414062 -0.1875 1.457031 -0.183594 1.503906 -0.179688 L 1.503906 0 L 0.195312 0 L 0.195312 -0.179688 C 0.238281 -0.183594 0.28125 -0.1875 0.324219 -0.191406 C 0.367188 -0.195312 0.40625 -0.199219 0.441406 -0.210938 C 0.488281 -0.226562 0.527344 -0.257812 0.550781 -0.296875 C 0.578125 -0.335938 0.589844 -0.390625 0.589844 -0.457031 L 0.589844 -2.105469 C 0.589844 -2.167969 0.574219 -2.222656 0.550781 -2.273438 C 0.523438 -2.328125 0.488281 -2.367188 0.441406 -2.402344 C 0.40625 -2.421875 0.363281 -2.4375 0.316406 -2.449219 C 0.269531 -2.457031 0.21875 -2.464844 0.164062 -2.46875 L 0.164062 -2.648438 L 1.054688 -2.707031 L 1.09375 -2.667969 L 1.09375 -2.292969 L 1.105469 -2.292969 C 1.148438 -2.335938 1.203125 -2.386719 1.269531 -2.449219 C 1.335938 -2.507812 1.394531 -2.558594 1.453125 -2.597656 C 1.519531 -2.640625 1.601562 -2.675781 1.691406 -2.703125 C 1.785156 -2.734375 1.890625 -2.75 2.003906 -2.75 C 2.261719 -2.75 2.453125 -2.667969 2.574219 -2.507812 C 2.699219 -2.347656 2.761719 -2.136719 2.761719 -1.871094 L 2.761719 -0.476562 C 2.761719 -0.414062 2.773438 -0.363281 2.792969 -0.324219 C 2.816406 -0.285156 2.851562 -0.253906 2.90625 -0.234375 C 2.949219 -0.214844 2.988281 -0.203125 3.019531 -0.195312 C 3.050781 -0.1875 3.09375 -0.183594 3.148438 -0.179688 Z "/>
</g>
<g id="glyph-0-5">
</g>
<g id="glyph-0-6">
<path d="M 2.195312 0 L 0.367188 0 L 0.367188 -0.191406 C 0.421875 -0.195312 0.503906 -0.203125 0.621094 -0.214844 C 0.734375 -0.226562 0.8125 -0.238281 0.855469 -0.253906 C 0.914062 -0.269531 0.957031 -0.300781 0.984375 -0.339844 C 1.015625 -0.382812 1.03125 -0.441406 1.03125 -0.523438 L 1.03125 -2.429688 L 0.355469 -2.429688 L 0.355469 -2.65625 L 0.503906 -2.65625 C 0.699219 -2.65625 0.875 -2.691406 1.03125 -2.765625 C 1.183594 -2.835938 1.296875 -2.914062 1.363281 -2.996094 L 1.585938 -2.996094 C 1.582031 -2.878906 1.578125 -2.742188 1.570312 -2.585938 C 1.566406 -2.429688 1.5625 -2.285156 1.5625 -2.164062 L 1.5625 -0.554688 C 1.5625 -0.488281 1.578125 -0.433594 1.605469 -0.382812 C 1.632812 -0.335938 1.671875 -0.296875 1.726562 -0.273438 C 1.773438 -0.253906 1.847656 -0.234375 1.957031 -0.21875 C 2.0625 -0.203125 2.140625 -0.195312 2.195312 -0.191406 Z "/>
</g>
</g>
</defs>
<g fill="rgb(53.333333%, 53.333333%, 53.333333%)" fill-opacity="1">
<use xlink:href="#glyph-0-0" x="30" y="25.094727"/>
<use xlink:href="#glyph-0-1" x="35" y="25.094727"/>
<use xlink:href="#glyph-0-2" x="37" y="25.094727"/>
<use xlink:href="#glyph-0-2" x="40" y="25.094727"/>
<use xlink:href="#glyph-0-3" x="43" y="25.094727"/>
<use xlink:href="#glyph-0-4" x="46" y="25.094727"/>
<use xlink:href="#glyph-0-5" x="49" y="25.094727"/>
<use xlink:href="#glyph-0-6" x="50" y="25.094727"/>
</g>
</svg>
