<?xml version="1.0" encoding="UTF-8"?>
<svg xmlns="http://www.w3.org/2000/svg" xmlns:xlink="http://www.w3.org/1999/xlink" width="854" height="480" viewBox="0 0 854 480">
<defs>
<g>
<g id="glyph-0-0">
<path d="M 4.191406 -2.511719 C 4.347656 -2.402344 4.480469 -2.265625 4.582031 -2.09375 C 4.6875 -1.921875 4.738281 -1.710938 4.738281 -1.464844 C 4.738281 -1.214844 4.683594 -0.996094 4.574219 -0.8125 C 4.46875 -0.628906 4.324219 -0.476562 4.152344 -0.355469 C 3.980469 -0.242188 3.789062 -0.152344 3.574219 -0.0898438 C 3.363281 -0.03125 3.140625 0 2.914062 0 L 0.359375 0 L 0.359375 -0.269531 C 0.421875 -0.273438 0.511719 -0.285156 0.625 -0.300781 C 0.742188 -0.320312 0.828125 -0.339844 0.878906 -0.359375 C 0.957031 -0.394531 1.011719 -0.445312 1.042969 -0.503906 C 1.078125 -0.5625 1.09375 -0.640625 1.09375 -0.734375 L 1.09375 -4.605469 C 1.09375 -4.691406 1.078125 -4.769531 1.050781 -4.835938 C 1.019531 -4.898438 0.964844 -4.953125 0.878906 -4.992188 C 0.800781 -5.03125 0.714844 -5.0625 0.621094 -5.082031 C 0.527344 -5.101562 0.449219 -5.113281 0.386719 -5.117188 L 0.386719 -5.390625 L 2.875 -5.390625 C 3.066406 -5.390625 3.25 -5.371094 3.425781 -5.332031 C 3.601562 -5.292969 3.769531 -5.226562 3.929688 -5.128906 C 4.078125 -5.042969 4.203125 -4.921875 4.296875 -4.769531 C 4.394531 -4.617188 4.441406 -4.433594 4.441406 -4.214844 C 4.441406 -4.023438 4.410156 -3.855469 4.339844 -3.707031 C 4.273438 -3.558594 4.175781 -3.433594 4.050781 -3.328125 C 3.933594 -3.226562 3.800781 -3.140625 3.652344 -3.070312 C 3.5 -3 3.339844 -2.945312 3.164062 -2.910156 L 3.164062 -2.875 C 3.316406 -2.855469 3.492188 -2.820312 3.683594 -2.757812 C 3.871094 -2.699219 4.042969 -2.617188 4.191406 -2.511719 M 3.273438 -3.324219 C 3.367188 -3.433594 3.433594 -3.550781 3.46875 -3.679688 C 3.503906 -3.808594 3.523438 -3.964844 3.523438 -4.140625 C 3.523438 -4.4375 3.441406 -4.671875 3.28125 -4.839844 C 3.121094 -5.007812 2.863281 -5.09375 2.515625 -5.09375 C 2.433594 -5.09375 2.332031 -5.089844 2.210938 -5.085938 C 2.089844 -5.082031 1.984375 -5.078125 1.902344 -5.078125 L 1.902344 -3.003906 L 2.382812 -3.003906 C 2.589844 -3.003906 2.769531 -3.03125 2.917969 -3.082031 C 3.0625 -3.136719 3.183594 -3.21875 3.273438 -3.324219 M 3.800781 -1.601562 C 3.800781 -1.921875 3.695312 -2.183594 3.480469 -2.386719 C 3.265625 -2.59375 2.960938 -2.695312 2.5625 -2.695312 C 2.402344 -2.695312 2.265625 -2.695312 2.152344 -2.691406 C 2.042969 -2.6875 1.957031 -2.683594 1.902344 -2.679688 L 1.902344 -0.78125 C 1.902344 -0.621094 1.96875 -0.503906 2.097656 -0.421875 C 2.226562 -0.339844 2.40625 -0.300781 2.636719 -0.300781 C 3.011719 -0.300781 3.300781 -0.410156 3.5 -0.628906 C 3.703125 -0.851562 3.800781 -1.175781 3.800781 -1.601562 Z "/>
</g>
<g id="glyph-0-1">
<path d="M 3.601562 -0.882812 C 3.441406 -0.582031 3.234375 -0.34375 2.96875 -0.167969 C 2.707031 0.0117188 2.402344 0.0976562 2.0625 0.0976562 C 1.761719 0.0976562 1.496094 0.046875 1.269531 -0.0625 C 1.042969 -0.167969 0.855469 -0.3125 0.710938 -0.492188 C 0.5625 -0.675781 0.453125 -0.886719 0.382812 -1.132812 C 0.308594 -1.375 0.273438 -1.632812 0.273438 -1.902344 C 0.273438 -2.144531 0.3125 -2.382812 0.390625 -2.617188 C 0.464844 -2.851562 0.578125 -3.0625 0.730469 -3.25 C 0.875 -3.429688 1.050781 -3.574219 1.265625 -3.683594 C 1.480469 -3.796875 1.71875 -3.851562 1.984375 -3.851562 C 2.257812 -3.851562 2.492188 -3.808594 2.6875 -3.722656 C 2.882812 -3.636719 3.042969 -3.519531 3.164062 -3.367188 C 3.28125 -3.226562 3.367188 -3.058594 3.421875 -2.867188 C 3.480469 -2.675781 3.507812 -2.464844 3.507812 -2.242188 L 3.507812 -1.988281 L 1.027344 -1.988281 C 1.027344 -1.742188 1.050781 -1.519531 1.097656 -1.320312 C 1.144531 -1.121094 1.21875 -0.941406 1.320312 -0.789062 C 1.421875 -0.644531 1.550781 -0.527344 1.707031 -0.441406 C 1.867188 -0.359375 2.058594 -0.316406 2.277344 -0.316406 C 2.503906 -0.316406 2.699219 -0.367188 2.863281 -0.472656 C 3.023438 -0.578125 3.183594 -0.769531 3.335938 -1.042969 L 3.601562 -0.882812 M 2.761719 -2.308594 C 2.761719 -2.449219 2.75 -2.601562 2.726562 -2.761719 C 2.699219 -2.925781 2.660156 -3.058594 2.609375 -3.167969 C 2.550781 -3.285156 2.472656 -3.378906 2.371094 -3.453125 C 2.269531 -3.527344 2.136719 -3.5625 1.976562 -3.5625 C 1.710938 -3.5625 1.492188 -3.453125 1.316406 -3.230469 C 1.140625 -3.011719 1.042969 -2.703125 1.027344 -2.308594 Z "/>
</g>
<g id="glyph-0-2">
<path d="M 2.746094 -1.835938 C 2.847656 -1.742188 2.929688 -1.636719 2.984375 -1.519531 C 3.039062 -1.398438 3.070312 -1.253906 3.070312 -1.082031 C 3.070312 -0.734375 2.9375 -0.453125 2.679688 -0.230469 C 2.417969 -0.0117188 2.082031 0.0976562 1.671875 0.0976562 C 1.453125 0.0976562 1.253906 0.0585938 1.070312 -0.0195312 C 0.886719 -0.0976562 0.753906 -0.167969 0.675781 -0.234375 L 0.601562 0.0117188 L 0.316406 0.0117188 L 0.277344 -1.292969 L 0.539062 -1.292969 C 0.558594 -1.191406 0.601562 -1.078125 0.667969 -0.945312 C 0.734375 -0.8125 0.8125 -0.691406 0.90625 -0.585938 C 1.007812 -0.472656 1.125 -0.378906 1.261719 -0.304688 C 1.402344 -0.226562 1.554688 -0.191406 1.726562 -0.191406 C 1.972656 -0.191406 2.160156 -0.246094 2.289062 -0.355469 C 2.421875 -0.46875 2.488281 -0.625 2.488281 -0.832031 C 2.488281 -0.9375 2.464844 -1.03125 2.425781 -1.105469 C 2.382812 -1.183594 2.320312 -1.25 2.242188 -1.308594 C 2.15625 -1.367188 2.054688 -1.421875 1.933594 -1.46875 C 1.8125 -1.515625 1.675781 -1.5625 1.527344 -1.605469 C 1.40625 -1.640625 1.273438 -1.691406 1.128906 -1.753906 C 0.984375 -1.816406 0.859375 -1.886719 0.753906 -1.972656 C 0.644531 -2.058594 0.554688 -2.167969 0.480469 -2.296875 C 0.410156 -2.425781 0.375 -2.578125 0.375 -2.753906 C 0.375 -3.058594 0.488281 -3.320312 0.71875 -3.53125 C 0.945312 -3.746094 1.25 -3.851562 1.632812 -3.851562 C 1.78125 -3.851562 1.929688 -3.832031 2.082031 -3.792969 C 2.234375 -3.753906 2.359375 -3.710938 2.457031 -3.65625 L 2.542969 -3.855469 L 2.816406 -3.855469 L 2.875 -2.652344 L 2.613281 -2.652344 C 2.558594 -2.921875 2.445312 -3.140625 2.269531 -3.308594 C 2.09375 -3.476562 1.878906 -3.5625 1.625 -3.5625 C 1.417969 -3.5625 1.253906 -3.511719 1.136719 -3.40625 C 1.015625 -3.300781 0.957031 -3.175781 0.957031 -3.027344 C 0.957031 -2.914062 0.976562 -2.816406 1.015625 -2.742188 C 1.054688 -2.664062 1.113281 -2.601562 1.191406 -2.546875 C 1.269531 -2.496094 1.363281 -2.449219 1.480469 -2.40625 C 1.59375 -2.363281 1.738281 -2.3125 1.90625 -2.253906 C 2.074219 -2.203125 2.230469 -2.140625 2.378906 -2.070312 C 2.527344 -2 2.648438 -1.921875 2.746094 -1.835938 Z "/>
</g>
<g id="glyph-0-3">
<path d="M 2.585938 -0.164062 C 2.421875 -0.09375 2.265625 -0.0390625 2.117188 0.0078125 C 1.972656 0.0546875 1.792969 0.078125 1.578125 0.078125 C 1.265625 0.078125 1.046875 0 0.917969 -0.15625 C 0.789062 -0.316406 0.726562 -0.539062 0.726562 -0.828125 L 0.726562 -3.363281 L 0.0507812 -3.363281 L 0.0507812 -3.730469 L 0.742188 -3.730469 L 0.742188 -4.894531 L 1.433594 -4.894531 L 1.433594 -3.730469 L 2.507812 -3.730469 L 2.507812 -3.363281 L 1.4375 -3.363281 L 1.4375 -1.273438 C 1.4375 -1.113281 1.445312 -0.984375 1.457031 -0.878906 C 1.46875 -0.773438 1.496094 -0.683594 1.539062 -0.605469 C 1.578125 -0.53125 1.640625 -0.476562 1.71875 -0.4375 C 1.800781 -0.398438 1.910156 -0.378906 2.046875 -0.378906 C 2.109375 -0.378906 2.203125 -0.386719 2.324219 -0.398438 C 2.449219 -0.410156 2.535156 -0.421875 2.585938 -0.441406 Z "/>
</g>
<g id="glyph-0-4">
</g>
<g id="glyph-0-5">
<path d="M 4.554688 -4.039062 L 4.269531 -4.039062 C 4.214844 -4.242188 4.105469 -4.453125 3.9375 -4.683594 C 3.769531 -4.910156 3.605469 -5.035156 3.453125 -5.058594 C 3.375 -5.070312 3.28125 -5.074219 3.171875 -5.082031 C 3.066406 -5.085938 2.941406 -5.089844 2.804688 -5.089844 L 1.902344 -5.089844 L 1.902344 -2.925781 L 2.523438 -2.925781 C 2.710938 -2.925781 2.855469 -2.945312 2.960938 -2.984375 C 3.066406 -3.023438 3.152344 -3.082031 3.226562 -3.164062 C 3.277344 -3.21875 3.324219 -3.304688 3.367188 -3.421875 C 3.40625 -3.542969 3.433594 -3.667969 3.449219 -3.800781 L 3.734375 -3.800781 L 3.734375 -1.683594 L 3.449219 -1.683594 C 3.441406 -1.792969 3.414062 -1.921875 3.371094 -2.0625 C 3.324219 -2.203125 3.277344 -2.304688 3.226562 -2.371094 C 3.152344 -2.464844 3.054688 -2.527344 2.941406 -2.5625 C 2.824219 -2.59375 2.683594 -2.613281 2.523438 -2.613281 L 1.902344 -2.613281 L 1.902344 -0.757812 C 1.902344 -0.675781 1.917969 -0.601562 1.953125 -0.535156 C 1.984375 -0.46875 2.042969 -0.417969 2.125 -0.375 C 2.164062 -0.359375 2.246094 -0.335938 2.375 -0.3125 C 2.5 -0.285156 2.597656 -0.273438 2.660156 -0.269531 L 2.660156 0 L 0.328125 0 L 0.328125 -0.269531 C 0.402344 -0.273438 0.503906 -0.28125 0.628906 -0.292969 C 0.757812 -0.304688 0.839844 -0.320312 0.878906 -0.339844 C 0.953125 -0.371094 1.007812 -0.417969 1.042969 -0.484375 C 1.078125 -0.546875 1.09375 -0.625 1.09375 -0.71875 L 1.09375 -4.605469 C 1.09375 -4.691406 1.078125 -4.765625 1.050781 -4.828125 C 1.023438 -4.894531 0.964844 -4.945312 0.878906 -4.984375 C 0.808594 -5.019531 0.71875 -5.046875 0.601562 -5.074219 C 0.488281 -5.097656 0.394531 -5.113281 0.328125 -5.117188 L 0.328125 -5.390625 L 4.554688 -5.390625 Z "/>
</g>
<g id="glyph-0-6">
<path d="M 2.089844 0 L 0.28125 0 L 0.28125 -0.25 C 0.339844 -0.253906 0.398438 -0.261719 0.460938 -0.265625 C 0.523438 -0.269531 0.578125 -0.28125 0.621094 -0.296875 C 0.695312 -0.320312 0.746094 -0.359375 0.78125 -0.414062 C 0.816406 -0.472656 0.832031 -0.546875 0.832031 -0.636719 L 0.832031 -2.949219 C 0.832031 -3.027344 0.8125 -3.101562 0.777344 -3.167969 C 0.738281 -3.238281 0.6875 -3.292969 0.621094 -3.339844 C 0.574219 -3.367188 0.503906 -3.394531 0.414062 -3.414062 C 0.324219 -3.4375 0.238281 -3.449219 0.164062 -3.457031 L 0.164062 -3.707031 L 1.484375 -3.789062 L 1.539062 -3.738281 L 1.539062 -0.683594 C 1.539062 -0.59375 1.554688 -0.523438 1.589844 -0.464844 C 1.621094 -0.40625 1.675781 -0.363281 1.75 -0.335938 C 1.804688 -0.3125 1.859375 -0.292969 1.910156 -0.277344 C 1.964844 -0.265625 2.023438 -0.253906 2.089844 -0.25 L 2.089844 0 M 1.613281 -5.265625 C 1.613281 -5.121094 1.566406 -4.996094 1.472656 -4.890625 C 1.375 -4.78125 1.257812 -4.726562 1.121094 -4.726562 C 0.992188 -4.726562 0.878906 -4.777344 0.785156 -4.882812 C 0.6875 -4.984375 0.640625 -5.101562 0.640625 -5.234375 C 0.640625 -5.371094 0.6875 -5.492188 0.785156 -5.597656 C 0.878906 -5.703125 0.992188 -5.753906 1.121094 -5.753906 C 1.265625 -5.753906 1.382812 -5.703125 1.476562 -5.605469 C 1.566406 -5.507812 1.613281 -5.394531 1.613281 -5.265625 Z "/>
</g>
<g id="glyph-0-7">
<path d="M 1.792969 -5.015625 C 1.792969 -4.890625 1.75 -4.464844 1.667969 -3.742188 C 1.582031 -3.015625 1.511719 -2.316406 1.445312 -1.640625 L 1.152344 -1.640625 C 1.09375 -2.316406 1.027344 -3.015625 0.945312 -3.742188 C 0.863281 -4.464844 0.820312 -4.890625 0.820312 -5.015625 C 0.820312 -5.160156 0.867188 -5.28125 0.957031 -5.382812 C 1.046875 -5.480469 1.164062 -5.527344 1.304688 -5.527344 C 1.449219 -5.527344 1.566406 -5.480469 1.65625 -5.382812 C 1.746094 -5.285156 1.792969 -5.164062 1.792969 -5.015625 M 1.828125 -0.4375 C 1.828125 -0.296875 1.773438 -0.175781 1.671875 -0.0742188 C 1.570312 0.0273438 1.449219 0.0742188 1.304688 0.0742188 C 1.164062 0.0742188 1.042969 0.0273438 0.941406 -0.0742188 C 0.835938 -0.175781 0.785156 -0.296875 0.785156 -0.4375 C 0.785156 -0.578125 0.835938 -0.699219 0.941406 -0.804688 C 1.042969 -0.90625 1.164062 -0.957031 1.304688 -0.957031 C 1.449219 -0.957031 1.570312 -0.90625 1.671875 -0.804688 C 1.773438 -0.699219 1.828125 -0.578125 1.828125 -0.4375 Z "/>
</g>
</g>
</defs>
<g fill="rgb(51.372549%, 75.686275%, 40.392157%)" fill-opacity="1">
<use xlink:href="#glyph-0-0" x="30" y="27.131836"/>
<use xlink:href="#glyph-0-1" x="35" y="27.131836"/>
<use xlink:href="#glyph-0-2" x="39" y="27.131836"/>
<use xlink:href="#glyph-0-3" x="42" y="27.131836"/>
<use xlink:href="#glyph-0-4" x="45" y="27.131836"/>
<use xlink:href="#glyph-0-5" x="47" y="27.131836"/>
<use xlink:href="#glyph-0-6" x="52" y="27.131836"/>
<use xlink:href="#glyph-0-3" x="54" y="27.131836"/>
<use xlink:href="#glyph-0-7" x="57" y="27.131836"/>
</g>
</svg>
