<?xml version="1.0" encoding="UTF-8"?>
<svg xmlns="http://www.w3.org/2000/svg" xmlns:xlink="http://www.w3.org/1999/xlink" width="854" height="480" viewBox="0 0 854 480">
<defs>
<g>
<g id="glyph-0-0">
<path d="M 5.785156 -6.621094 L 5.859375 -5.070312 L 5.671875 -5.070312 C 5.636719 -5.34375 5.589844 -5.539062 5.527344 -5.65625 C 5.425781 -5.84375 5.292969 -5.980469 5.125 -6.070312 C 4.957031 -6.160156 4.734375 -6.207031 4.460938 -6.207031 L 3.53125 -6.207031 L 3.53125 -1.148438 C 3.53125 -0.742188 3.574219 -0.488281 3.664062 -0.386719 C 3.785156 -0.25 3.976562 -0.179688 4.234375 -0.179688 L 4.460938 -0.179688 L 4.460938 0 L 1.65625 0 L 1.65625 -0.179688 L 1.890625 -0.179688 C 2.167969 -0.179688 2.367188 -0.265625 2.484375 -0.433594 C 2.558594 -0.539062 2.59375 -0.777344 2.59375 -1.148438 L 2.59375 -6.207031 L 1.796875 -6.207031 C 1.488281 -6.207031 1.269531 -6.183594 1.136719 -6.136719 C 0.96875 -6.074219 0.824219 -5.957031 0.703125 -5.78125 C 0.582031 -5.605469 0.511719 -5.367188 0.488281 -5.070312 L 0.304688 -5.070312 L 0.382812 -6.621094 Z "/>
</g>
<g id="glyph-0-1">
<path d="M 1.625 -6.945312 L 1.625 -3.671875 C 1.988281 -4.070312 2.273438 -4.324219 2.484375 -4.4375 C 2.695312 -4.546875 2.910156 -4.605469 3.121094 -4.605469 C 3.375 -4.605469 3.59375 -4.535156 3.773438 -4.394531 C 3.957031 -4.253906 4.09375 -4.035156 4.179688 -3.734375 C 4.242188 -3.527344 4.273438 -3.144531 4.273438 -2.59375 L 4.273438 -1.011719 C 4.273438 -0.726562 4.296875 -0.535156 4.339844 -0.429688 C 4.375 -0.351562 4.429688 -0.289062 4.507812 -0.242188 C 4.585938 -0.199219 4.726562 -0.175781 4.9375 -0.175781 L 4.9375 0 L 2.738281 0 L 2.738281 -0.175781 L 2.84375 -0.175781 C 3.050781 -0.175781 3.195312 -0.207031 3.277344 -0.269531 C 3.359375 -0.335938 3.414062 -0.429688 3.445312 -0.550781 C 3.457031 -0.605469 3.460938 -0.757812 3.460938 -1.011719 L 3.460938 -2.59375 C 3.460938 -3.082031 3.4375 -3.402344 3.386719 -3.554688 C 3.335938 -3.707031 3.253906 -3.824219 3.144531 -3.898438 C 3.035156 -3.976562 2.898438 -4.011719 2.742188 -4.015625 C 2.585938 -4.011719 2.417969 -3.972656 2.246094 -3.886719 C 2.074219 -3.800781 1.867188 -3.632812 1.625 -3.375 L 1.625 -1.011719 C 1.625 -0.703125 1.644531 -0.515625 1.675781 -0.4375 C 1.710938 -0.363281 1.773438 -0.300781 1.867188 -0.25 C 1.960938 -0.199219 2.121094 -0.175781 2.347656 -0.175781 L 2.347656 0 L 0.132812 0 L 0.132812 -0.175781 C 0.332031 -0.175781 0.488281 -0.207031 0.601562 -0.269531 C 0.664062 -0.300781 0.71875 -0.363281 0.757812 -0.453125 C 0.796875 -0.546875 0.816406 -0.730469 0.816406 -1.011719 L 0.816406 -5.058594 C 0.816406 -5.570312 0.804688 -5.882812 0.777344 -6 C 0.753906 -6.117188 0.71875 -6.199219 0.667969 -6.242188 C 0.617188 -6.28125 0.546875 -6.304688 0.464844 -6.304688 C 0.394531 -6.304688 0.285156 -6.277344 0.132812 -6.226562 L 0.0625 -6.398438 L 1.402344 -6.945312 Z "/>
</g>
<g id="glyph-0-2">
<path d="M 1.0625 -2.789062 C 1.0625 -2.125 1.222656 -1.601562 1.546875 -1.226562 C 1.875 -0.847656 2.253906 -0.660156 2.695312 -0.660156 C 2.988281 -0.660156 3.242188 -0.738281 3.460938 -0.902344 C 3.675781 -1.0625 3.859375 -1.335938 4.003906 -1.726562 L 4.15625 -1.632812 C 4.085938 -1.183594 3.886719 -0.777344 3.558594 -0.414062 C 3.230469 -0.046875 2.820312 0.136719 2.324219 0.136719 C 1.789062 0.136719 1.328125 -0.0742188 0.945312 -0.492188 C 0.5625 -0.910156 0.371094 -1.472656 0.371094 -2.179688 C 0.371094 -2.941406 0.566406 -3.539062 0.960938 -3.96875 C 1.351562 -4.394531 1.84375 -4.609375 2.4375 -4.609375 C 2.9375 -4.609375 3.351562 -4.445312 3.671875 -4.113281 C 3.992188 -3.785156 4.15625 -3.339844 4.15625 -2.789062 L 1.0625 -2.789062 M 1.0625 -3.070312 L 3.132812 -3.070312 C 3.117188 -3.359375 3.085938 -3.558594 3.03125 -3.675781 C 2.949219 -3.859375 2.828125 -4.003906 2.667969 -4.105469 C 2.507812 -4.210938 2.339844 -4.261719 2.164062 -4.261719 C 1.894531 -4.261719 1.652344 -4.15625 1.4375 -3.949219 C 1.226562 -3.738281 1.101562 -3.445312 1.0625 -3.070312 Z "/>
</g>
<g id="glyph-0-3">
</g>
<g id="glyph-0-4">
<path d="M 6.019531 -6.773438 L 6.171875 -4.523438 L 6.019531 -4.523438 C 5.820312 -5.195312 5.53125 -5.679688 5.15625 -5.976562 C 4.78125 -6.273438 4.332031 -6.421875 3.808594 -6.421875 C 3.367188 -6.421875 2.972656 -6.308594 2.617188 -6.085938 C 2.261719 -5.863281 1.984375 -5.507812 1.78125 -5.019531 C 1.578125 -4.53125 1.476562 -3.925781 1.476562 -3.199219 C 1.476562 -2.597656 1.570312 -2.078125 1.761719 -1.640625 C 1.953125 -1.199219 2.242188 -0.863281 2.628906 -0.628906 C 3.015625 -0.394531 3.457031 -0.277344 3.949219 -0.277344 C 4.378906 -0.277344 4.757812 -0.371094 5.085938 -0.554688 C 5.417969 -0.738281 5.777344 -1.101562 6.171875 -1.648438 L 6.324219 -1.554688 C 5.992188 -0.964844 5.605469 -0.53125 5.160156 -0.257812 C 4.71875 0.015625 4.191406 0.152344 3.585938 0.152344 C 2.488281 0.152344 1.636719 -0.253906 1.035156 -1.070312 C 0.585938 -1.675781 0.359375 -2.386719 0.359375 -3.207031 C 0.359375 -3.867188 0.507812 -4.476562 0.804688 -5.03125 C 1.101562 -5.582031 1.507812 -6.011719 2.027344 -6.316406 C 2.546875 -6.621094 3.117188 -6.773438 3.730469 -6.773438 C 4.210938 -6.773438 4.679688 -6.65625 5.148438 -6.421875 C 5.28125 -6.347656 5.382812 -6.3125 5.4375 -6.3125 C 5.527344 -6.3125 5.605469 -6.34375 5.667969 -6.40625 C 5.753906 -6.492188 5.8125 -6.617188 5.851562 -6.773438 Z "/>
</g>
<g id="glyph-0-5">
<path d="M 1.621094 -4.605469 L 1.621094 -3.597656 C 1.996094 -4.269531 2.378906 -4.605469 2.773438 -4.605469 C 2.953125 -4.605469 3.101562 -4.550781 3.21875 -4.441406 C 3.335938 -4.332031 3.394531 -4.207031 3.394531 -4.0625 C 3.394531 -3.9375 3.351562 -3.828125 3.265625 -3.742188 C 3.183594 -3.652344 3.082031 -3.609375 2.964844 -3.609375 C 2.851562 -3.609375 2.722656 -3.664062 2.582031 -3.777344 C 2.4375 -3.890625 2.335938 -3.945312 2.265625 -3.945312 C 2.207031 -3.945312 2.144531 -3.914062 2.074219 -3.847656 C 1.929688 -3.714844 1.777344 -3.496094 1.621094 -3.1875 L 1.621094 -1.046875 C 1.621094 -0.796875 1.652344 -0.609375 1.714844 -0.484375 C 1.757812 -0.394531 1.832031 -0.320312 1.9375 -0.265625 C 2.046875 -0.203125 2.199219 -0.175781 2.402344 -0.175781 L 2.402344 0 L 0.113281 0 L 0.113281 -0.175781 C 0.339844 -0.175781 0.507812 -0.210938 0.621094 -0.28125 C 0.703125 -0.335938 0.757812 -0.417969 0.789062 -0.53125 C 0.808594 -0.585938 0.816406 -0.746094 0.816406 -1.007812 L 0.816406 -2.738281 C 0.816406 -3.261719 0.804688 -3.570312 0.785156 -3.667969 C 0.761719 -3.769531 0.722656 -3.839844 0.667969 -3.886719 C 0.609375 -3.933594 0.539062 -3.953125 0.453125 -3.953125 C 0.351562 -3.953125 0.238281 -3.929688 0.113281 -3.882812 L 0.0625 -4.058594 L 1.414062 -4.605469 Z "/>
</g>
<g id="glyph-0-6">
<path d="M 2.5 -4.605469 C 3.175781 -4.605469 3.71875 -4.347656 4.132812 -3.832031 C 4.480469 -3.394531 4.652344 -2.890625 4.652344 -2.320312 C 4.652344 -1.917969 4.558594 -1.515625 4.367188 -1.101562 C 4.171875 -0.695312 3.910156 -0.382812 3.570312 -0.175781 C 3.234375 0.03125 2.859375 0.136719 2.445312 0.136719 C 1.773438 0.136719 1.238281 -0.132812 0.839844 -0.667969 C 0.503906 -1.121094 0.335938 -1.628906 0.335938 -2.191406 C 0.335938 -2.601562 0.4375 -3.011719 0.640625 -3.414062 C 0.84375 -3.820312 1.113281 -4.121094 1.445312 -4.3125 C 1.777344 -4.507812 2.128906 -4.605469 2.5 -4.605469 M 2.347656 -4.289062 C 2.175781 -4.289062 2.003906 -4.234375 1.828125 -4.132812 C 1.65625 -4.03125 1.515625 -3.851562 1.40625 -3.59375 C 1.296875 -3.335938 1.246094 -3.007812 1.246094 -2.601562 C 1.246094 -1.953125 1.375 -1.390625 1.632812 -0.917969 C 1.890625 -0.445312 2.234375 -0.210938 2.65625 -0.210938 C 2.972656 -0.210938 3.234375 -0.339844 3.4375 -0.601562 C 3.640625 -0.859375 3.746094 -1.308594 3.746094 -1.945312 C 3.746094 -2.738281 3.574219 -3.363281 3.234375 -3.820312 C 3 -4.132812 2.707031 -4.289062 2.347656 -4.289062 Z "/>
</g>
<g id="glyph-0-7">
<path d="M 3.203125 -4.605469 L 3.203125 -3.082031 L 3.042969 -3.082031 C 2.917969 -3.558594 2.757812 -3.886719 2.566406 -4.058594 C 2.371094 -4.230469 2.125 -4.316406 1.828125 -4.316406 C 1.597656 -4.316406 1.414062 -4.257812 1.273438 -4.136719 C 1.132812 -4.015625 1.0625 -3.882812 1.0625 -3.734375 C 1.0625 -3.554688 1.117188 -3.398438 1.21875 -3.265625 C 1.320312 -3.132812 1.527344 -2.992188 1.835938 -2.84375 L 2.546875 -2.496094 C 3.210938 -2.171875 3.539062 -1.75 3.539062 -1.21875 C 3.539062 -0.8125 3.386719 -0.484375 3.078125 -0.238281 C 2.769531 0.0117188 2.425781 0.136719 2.046875 0.136719 C 1.773438 0.136719 1.460938 0.0859375 1.109375 -0.0078125 C 1 -0.0429688 0.914062 -0.0585938 0.84375 -0.0585938 C 0.769531 -0.0585938 0.710938 -0.015625 0.667969 0.0703125 L 0.507812 0.0703125 L 0.507812 -1.527344 L 0.667969 -1.527344 C 0.761719 -1.074219 0.933594 -0.730469 1.191406 -0.5 C 1.449219 -0.265625 1.738281 -0.152344 2.054688 -0.152344 C 2.28125 -0.152344 2.464844 -0.21875 2.605469 -0.347656 C 2.746094 -0.480469 2.816406 -0.640625 2.816406 -0.824219 C 2.816406 -1.050781 2.738281 -1.238281 2.582031 -1.390625 C 2.421875 -1.542969 2.109375 -1.738281 1.636719 -1.972656 C 1.164062 -2.207031 0.855469 -2.417969 0.707031 -2.609375 C 0.5625 -2.792969 0.488281 -3.027344 0.488281 -3.3125 C 0.488281 -3.679688 0.613281 -3.984375 0.867188 -4.234375 C 1.117188 -4.480469 1.445312 -4.605469 1.84375 -4.605469 C 2.019531 -4.605469 2.234375 -4.566406 2.484375 -4.492188 C 2.652344 -4.445312 2.761719 -4.417969 2.816406 -4.417969 C 2.871094 -4.417969 2.910156 -4.429688 2.9375 -4.453125 C 2.96875 -4.476562 3.003906 -4.527344 3.042969 -4.605469 Z "/>
</g>
<g id="glyph-0-8">
<path d="M 2.089844 -6.257812 L 2.089844 -3.640625 L 3.546875 -3.640625 C 3.921875 -3.640625 4.175781 -3.699219 4.300781 -3.8125 C 4.472656 -3.964844 4.566406 -4.226562 4.585938 -4.605469 L 4.765625 -4.605469 L 4.765625 -2.300781 L 4.585938 -2.300781 C 4.539062 -2.621094 4.492188 -2.828125 4.449219 -2.921875 C 4.390625 -3.035156 4.292969 -3.125 4.160156 -3.1875 C 4.027344 -3.253906 3.820312 -3.285156 3.546875 -3.285156 L 2.089844 -3.285156 L 2.089844 -1.101562 C 2.089844 -0.8125 2.101562 -0.632812 2.128906 -0.570312 C 2.15625 -0.503906 2.199219 -0.453125 2.265625 -0.417969 C 2.332031 -0.378906 2.453125 -0.359375 2.636719 -0.359375 L 3.757812 -0.359375 C 4.132812 -0.359375 4.40625 -0.386719 4.574219 -0.4375 C 4.746094 -0.492188 4.90625 -0.59375 5.0625 -0.746094 C 5.265625 -0.949219 5.472656 -1.253906 5.683594 -1.660156 L 5.878906 -1.660156 L 5.308594 0 L 0.203125 0 L 0.203125 -0.179688 L 0.4375 -0.179688 C 0.59375 -0.179688 0.742188 -0.21875 0.882812 -0.292969 C 0.988281 -0.34375 1.058594 -0.421875 1.097656 -0.527344 C 1.132812 -0.632812 1.152344 -0.84375 1.152344 -1.167969 L 1.152344 -5.46875 C 1.152344 -5.890625 1.109375 -6.148438 1.023438 -6.246094 C 0.90625 -6.375 0.710938 -6.441406 0.4375 -6.441406 L 0.203125 -6.441406 L 0.203125 -6.621094 L 5.308594 -6.621094 L 5.382812 -5.171875 L 5.191406 -5.171875 C 5.121094 -5.519531 5.046875 -5.757812 4.964844 -5.890625 C 4.878906 -6.019531 4.757812 -6.117188 4.59375 -6.1875 C 4.464844 -6.234375 4.234375 -6.257812 3.90625 -6.257812 Z "/>
</g>
<g id="glyph-0-9">
<path d="M 1.617188 -3.65625 C 2.140625 -4.289062 2.640625 -4.605469 3.117188 -4.605469 C 3.359375 -4.605469 3.570312 -4.542969 3.746094 -4.421875 C 3.921875 -4.300781 4.0625 -4.097656 4.164062 -3.820312 C 4.238281 -3.625 4.273438 -3.324219 4.273438 -2.921875 L 4.273438 -1.011719 C 4.273438 -0.726562 4.296875 -0.535156 4.339844 -0.433594 C 4.375 -0.351562 4.433594 -0.289062 4.515625 -0.242188 C 4.59375 -0.199219 4.742188 -0.175781 4.957031 -0.175781 L 4.957031 0 L 2.742188 0 L 2.742188 -0.175781 L 2.835938 -0.175781 C 3.046875 -0.175781 3.191406 -0.207031 3.273438 -0.269531 C 3.355469 -0.335938 3.414062 -0.429688 3.445312 -0.550781 C 3.460938 -0.601562 3.46875 -0.753906 3.46875 -1.011719 L 3.46875 -2.84375 C 3.46875 -3.25 3.414062 -3.542969 3.308594 -3.726562 C 3.203125 -3.910156 3.023438 -4.003906 2.773438 -4.003906 C 2.386719 -4.003906 2 -3.792969 1.617188 -3.367188 L 1.617188 -1.011719 C 1.617188 -0.707031 1.632812 -0.519531 1.671875 -0.449219 C 1.714844 -0.355469 1.777344 -0.285156 1.859375 -0.242188 C 1.9375 -0.199219 2.097656 -0.175781 2.34375 -0.175781 L 2.34375 0 L 0.132812 0 L 0.132812 -0.175781 L 0.230469 -0.175781 C 0.457031 -0.175781 0.609375 -0.234375 0.691406 -0.347656 C 0.769531 -0.464844 0.8125 -0.683594 0.8125 -1.011719 L 0.8125 -2.671875 C 0.8125 -3.207031 0.796875 -3.535156 0.773438 -3.652344 C 0.75 -3.769531 0.710938 -3.847656 0.660156 -3.890625 C 0.609375 -3.933594 0.542969 -3.953125 0.460938 -3.953125 C 0.367188 -3.953125 0.257812 -3.929688 0.132812 -3.882812 L 0.0585938 -4.058594 L 1.40625 -4.605469 L 1.617188 -4.605469 Z "/>
</g>
<g id="glyph-0-10">
<path d="M 1.609375 -5.941406 L 1.609375 -4.472656 L 2.65625 -4.472656 L 2.65625 -4.132812 L 1.609375 -4.132812 L 1.609375 -1.230469 C 1.609375 -0.941406 1.652344 -0.746094 1.734375 -0.644531 C 1.820312 -0.542969 1.925781 -0.492188 2.054688 -0.492188 C 2.164062 -0.492188 2.265625 -0.527344 2.367188 -0.59375 C 2.46875 -0.660156 2.546875 -0.757812 2.601562 -0.890625 L 2.792969 -0.890625 C 2.679688 -0.570312 2.519531 -0.328125 2.308594 -0.167969 C 2.101562 -0.0078125 1.886719 0.0742188 1.664062 0.0742188 C 1.515625 0.0742188 1.367188 0.03125 1.226562 -0.0507812 C 1.082031 -0.132812 0.976562 -0.253906 0.90625 -0.40625 C 0.839844 -0.5625 0.804688 -0.800781 0.804688 -1.125 L 0.804688 -4.132812 L 0.0976562 -4.132812 L 0.0976562 -4.292969 C 0.277344 -4.363281 0.460938 -4.484375 0.648438 -4.65625 C 0.835938 -4.828125 1 -5.03125 1.148438 -5.265625 C 1.222656 -5.386719 1.328125 -5.613281 1.460938 -5.941406 Z "/>
</g>
<g id="glyph-0-11">
<path d="M -0.0078125 -4.027344 L 1.367188 -4.585938 L 1.554688 -4.585938 L 1.554688 -3.539062 C 1.785156 -3.933594 2.015625 -4.210938 2.25 -4.367188 C 2.480469 -4.527344 2.726562 -4.605469 2.984375 -4.605469 C 3.433594 -4.605469 3.808594 -4.429688 4.105469 -4.078125 C 4.472656 -3.648438 4.65625 -3.085938 4.65625 -2.398438 C 4.65625 -1.625 4.4375 -0.988281 3.992188 -0.484375 C 3.628906 -0.0703125 3.171875 0.136719 2.617188 0.136719 C 2.375 0.136719 2.167969 0.101562 1.992188 0.0351562 C 1.863281 -0.015625 1.714844 -0.113281 1.554688 -0.257812 L 1.554688 1.101562 C 1.554688 1.410156 1.570312 1.605469 1.609375 1.6875 C 1.644531 1.769531 1.710938 1.835938 1.804688 1.882812 C 1.898438 1.933594 2.066406 1.957031 2.308594 1.957031 L 2.308594 2.140625 L -0.0351562 2.140625 L -0.0351562 1.957031 L 0.0859375 1.957031 C 0.265625 1.960938 0.421875 1.925781 0.546875 1.855469 C 0.609375 1.820312 0.65625 1.761719 0.691406 1.683594 C 0.726562 1.601562 0.742188 1.398438 0.742188 1.074219 L 0.742188 -3.15625 C 0.742188 -3.445312 0.730469 -3.628906 0.703125 -3.707031 C 0.675781 -3.785156 0.636719 -3.84375 0.578125 -3.882812 C 0.523438 -3.921875 0.445312 -3.941406 0.347656 -3.941406 C 0.269531 -3.941406 0.167969 -3.917969 0.046875 -3.871094 L -0.0078125 -4.027344 M 1.554688 -3.25 L 1.554688 -1.582031 C 1.554688 -1.21875 1.566406 -0.984375 1.597656 -0.867188 C 1.640625 -0.679688 1.753906 -0.515625 1.929688 -0.371094 C 2.109375 -0.226562 2.332031 -0.15625 2.601562 -0.15625 C 2.929688 -0.15625 3.191406 -0.28125 3.394531 -0.539062 C 3.65625 -0.867188 3.789062 -1.335938 3.789062 -1.9375 C 3.789062 -2.621094 3.640625 -3.148438 3.339844 -3.515625 C 3.132812 -3.769531 2.882812 -3.894531 2.597656 -3.898438 C 2.441406 -3.894531 2.285156 -3.855469 2.132812 -3.78125 C 2.015625 -3.71875 1.824219 -3.546875 1.554688 -3.25 Z "/>
</g>
<g id="glyph-0-12">
<path d="M 0.0585938 -4.472656 L 2.144531 -4.472656 L 2.144531 -4.292969 L 2.039062 -4.292969 C 1.894531 -4.292969 1.785156 -4.261719 1.710938 -4.195312 C 1.636719 -4.132812 1.601562 -4.054688 1.601562 -3.960938 C 1.601562 -3.832031 1.65625 -3.65625 1.761719 -3.433594 L 2.851562 -1.175781 L 3.851562 -3.648438 C 3.90625 -3.78125 3.9375 -3.914062 3.9375 -4.042969 C 3.9375 -4.101562 3.925781 -4.144531 3.902344 -4.175781 C 3.875 -4.210938 3.835938 -4.238281 3.78125 -4.261719 C 3.722656 -4.28125 3.625 -4.292969 3.484375 -4.292969 L 3.484375 -4.472656 L 4.941406 -4.472656 L 4.941406 -4.292969 C 4.820312 -4.277344 4.726562 -4.253906 4.664062 -4.214844 C 4.597656 -4.175781 4.527344 -4.101562 4.449219 -3.992188 C 4.417969 -3.949219 4.363281 -3.824219 4.28125 -3.617188 L 2.460938 0.84375 C 2.285156 1.277344 2.054688 1.605469 1.769531 1.828125 C 1.484375 2.046875 1.210938 2.15625 0.945312 2.15625 C 0.753906 2.15625 0.597656 2.101562 0.472656 1.992188 C 0.351562 1.882812 0.289062 1.753906 0.289062 1.609375 C 0.289062 1.476562 0.332031 1.363281 0.421875 1.28125 C 0.511719 1.199219 0.632812 1.15625 0.789062 1.15625 C 0.898438 1.15625 1.042969 1.191406 1.230469 1.265625 C 1.359375 1.3125 1.441406 1.335938 1.476562 1.335938 C 1.570312 1.335938 1.679688 1.289062 1.792969 1.1875 C 1.910156 1.085938 2.027344 0.890625 2.144531 0.601562 L 2.460938 -0.175781 L 0.855469 -3.550781 C 0.804688 -3.652344 0.726562 -3.777344 0.621094 -3.925781 C 0.539062 -4.039062 0.472656 -4.117188 0.421875 -4.15625 C 0.34375 -4.207031 0.222656 -4.253906 0.0585938 -4.292969 Z "/>
</g>
<g id="glyph-0-13">
<path d="M 2.046875 -6.257812 L 2.046875 -3.65625 L 3.25 -3.65625 C 3.527344 -3.65625 3.730469 -3.71875 3.859375 -3.839844 C 3.988281 -3.960938 4.074219 -4.203125 4.117188 -4.566406 L 4.296875 -4.566406 L 4.296875 -2.324219 L 4.117188 -2.324219 C 4.113281 -2.582031 4.078125 -2.769531 4.015625 -2.890625 C 3.953125 -3.011719 3.863281 -3.101562 3.753906 -3.160156 C 3.640625 -3.222656 3.472656 -3.25 3.25 -3.25 L 2.046875 -3.25 L 2.046875 -1.171875 C 2.046875 -0.835938 2.066406 -0.617188 2.109375 -0.507812 C 2.140625 -0.425781 2.210938 -0.355469 2.3125 -0.296875 C 2.457031 -0.21875 2.609375 -0.179688 2.765625 -0.179688 L 3.003906 -0.179688 L 3.003906 0 L 0.160156 0 L 0.160156 -0.179688 L 0.394531 -0.179688 C 0.667969 -0.179688 0.867188 -0.261719 0.992188 -0.421875 C 1.070312 -0.523438 1.109375 -0.773438 1.109375 -1.171875 L 1.109375 -5.449219 C 1.109375 -5.785156 1.085938 -6.007812 1.046875 -6.113281 C 1.011719 -6.195312 0.945312 -6.265625 0.84375 -6.324219 C 0.703125 -6.402344 0.554688 -6.441406 0.394531 -6.441406 L 0.160156 -6.441406 L 0.160156 -6.621094 L 5.085938 -6.621094 L 5.152344 -5.164062 L 4.980469 -5.164062 C 4.894531 -5.476562 4.796875 -5.703125 4.683594 -5.847656 C 4.574219 -5.992188 4.433594 -6.097656 4.269531 -6.164062 C 4.105469 -6.226562 3.851562 -6.257812 3.507812 -6.257812 Z "/>
</g>
<g id="glyph-0-14">
<path d="M 1.640625 -3.652344 C 1.964844 -3.976562 2.15625 -4.164062 2.21875 -4.214844 C 2.363281 -4.335938 2.519531 -4.433594 2.691406 -4.5 C 2.859375 -4.570312 3.027344 -4.605469 3.195312 -4.605469 C 3.472656 -4.605469 3.714844 -4.523438 3.914062 -4.359375 C 4.117188 -4.199219 4.253906 -3.960938 4.320312 -3.652344 C 4.65625 -4.042969 4.941406 -4.300781 5.171875 -4.421875 C 5.402344 -4.542969 5.640625 -4.605469 5.882812 -4.605469 C 6.121094 -4.605469 6.332031 -4.542969 6.515625 -4.421875 C 6.699219 -4.300781 6.84375 -4.101562 6.953125 -3.824219 C 7.023438 -3.632812 7.0625 -3.339844 7.0625 -2.933594 L 7.0625 -1.011719 C 7.0625 -0.730469 7.082031 -0.539062 7.125 -0.433594 C 7.15625 -0.363281 7.21875 -0.300781 7.304688 -0.25 C 7.390625 -0.199219 7.535156 -0.175781 7.734375 -0.175781 L 7.734375 0 L 5.527344 0 L 5.527344 -0.175781 L 5.621094 -0.175781 C 5.8125 -0.175781 5.960938 -0.214844 6.070312 -0.289062 C 6.144531 -0.339844 6.199219 -0.421875 6.230469 -0.539062 C 6.242188 -0.59375 6.25 -0.75 6.25 -1.011719 L 6.25 -2.933594 C 6.25 -3.300781 6.207031 -3.554688 6.117188 -3.707031 C 5.992188 -3.914062 5.789062 -4.019531 5.507812 -4.019531 C 5.335938 -4.019531 5.160156 -3.976562 4.988281 -3.890625 C 4.8125 -3.804688 4.601562 -3.640625 4.355469 -3.40625 L 4.34375 -3.355469 L 4.355469 -3.144531 L 4.355469 -1.011719 C 4.355469 -0.703125 4.371094 -0.515625 4.40625 -0.4375 C 4.441406 -0.363281 4.503906 -0.300781 4.601562 -0.25 C 4.695312 -0.199219 4.855469 -0.175781 5.082031 -0.175781 L 5.082031 0 L 2.820312 0 L 2.820312 -0.175781 C 3.070312 -0.175781 3.238281 -0.203125 3.332031 -0.265625 C 3.425781 -0.320312 3.488281 -0.410156 3.523438 -0.527344 C 3.542969 -0.582031 3.550781 -0.742188 3.550781 -1.011719 L 3.550781 -2.933594 C 3.550781 -3.300781 3.496094 -3.5625 3.390625 -3.71875 C 3.246094 -3.929688 3.046875 -4.03125 2.789062 -4.03125 C 2.613281 -4.03125 2.4375 -3.984375 2.265625 -3.890625 C 1.996094 -3.75 1.789062 -3.585938 1.640625 -3.40625 L 1.640625 -1.011719 C 1.640625 -0.71875 1.660156 -0.527344 1.703125 -0.4375 C 1.742188 -0.351562 1.800781 -0.285156 1.882812 -0.242188 C 1.960938 -0.199219 2.125 -0.175781 2.367188 -0.175781 L 2.367188 0 L 0.15625 0 L 0.15625 -0.175781 C 0.359375 -0.175781 0.503906 -0.199219 0.585938 -0.242188 C 0.667969 -0.285156 0.730469 -0.355469 0.773438 -0.453125 C 0.8125 -0.546875 0.835938 -0.734375 0.835938 -1.011719 L 0.835938 -2.71875 C 0.835938 -3.210938 0.820312 -3.527344 0.789062 -3.671875 C 0.769531 -3.78125 0.734375 -3.851562 0.683594 -3.894531 C 0.632812 -3.933594 0.566406 -3.953125 0.484375 -3.953125 C 0.390625 -3.953125 0.28125 -3.929688 0.15625 -3.882812 L 0.0820312 -4.058594 L 1.429688 -4.605469 L 1.640625 -4.605469 Z "/>
</g>
<g id="glyph-0-15">
<path d="M 4.234375 -4.472656 L 4.234375 -1.761719 C 4.234375 -1.246094 4.246094 -0.929688 4.269531 -0.8125 C 4.292969 -0.699219 4.332031 -0.617188 4.386719 -0.570312 C 4.441406 -0.527344 4.503906 -0.503906 4.574219 -0.503906 C 4.675781 -0.503906 4.789062 -0.53125 4.917969 -0.585938 L 4.984375 -0.414062 L 3.648438 0.136719 L 3.429688 0.136719 L 3.429688 -0.8125 C 3.042969 -0.394531 2.75 -0.132812 2.546875 -0.0234375 C 2.347656 0.0820312 2.132812 0.136719 1.910156 0.136719 C 1.660156 0.136719 1.441406 0.0625 1.257812 -0.0820312 C 1.074219 -0.226562 0.945312 -0.410156 0.875 -0.640625 C 0.800781 -0.867188 0.765625 -1.191406 0.765625 -1.605469 L 0.765625 -3.601562 C 0.765625 -3.816406 0.742188 -3.960938 0.699219 -4.042969 C 0.652344 -4.125 0.585938 -4.1875 0.496094 -4.230469 C 0.40625 -4.273438 0.242188 -4.296875 0.0078125 -4.292969 L 0.0078125 -4.472656 L 1.578125 -4.472656 L 1.578125 -1.480469 C 1.578125 -1.0625 1.648438 -0.789062 1.792969 -0.660156 C 1.9375 -0.527344 2.113281 -0.464844 2.320312 -0.464844 C 2.460938 -0.464844 2.617188 -0.507812 2.796875 -0.59375 C 2.972656 -0.683594 3.183594 -0.851562 3.429688 -1.097656 L 3.429688 -3.632812 C 3.429688 -3.886719 3.382812 -4.058594 3.289062 -4.148438 C 3.195312 -4.238281 3.003906 -4.285156 2.710938 -4.292969 L 2.710938 -4.472656 Z "/>
</g>
<g id="glyph-0-16">
<path d="M 1.851562 -6.945312 L 1.851562 -1.011719 C 1.851562 -0.730469 1.871094 -0.546875 1.910156 -0.453125 C 1.953125 -0.363281 2.015625 -0.292969 2.101562 -0.246094 C 2.183594 -0.199219 2.34375 -0.175781 2.574219 -0.175781 L 2.574219 0 L 0.382812 0 L 0.382812 -0.175781 C 0.585938 -0.175781 0.726562 -0.195312 0.800781 -0.238281 C 0.875 -0.28125 0.933594 -0.351562 0.976562 -0.449219 C 1.019531 -0.546875 1.039062 -0.734375 1.039062 -1.011719 L 1.039062 -5.074219 C 1.039062 -5.578125 1.027344 -5.886719 1.007812 -6.003906 C 0.984375 -6.117188 0.945312 -6.199219 0.894531 -6.242188 C 0.84375 -6.28125 0.78125 -6.304688 0.703125 -6.304688 C 0.617188 -6.304688 0.511719 -6.277344 0.382812 -6.226562 L 0.296875 -6.398438 L 1.632812 -6.945312 Z "/>
</g>
<g id="glyph-0-17">
<path d="M 2.847656 -0.644531 C 2.386719 -0.289062 2.101562 -0.0859375 1.984375 -0.03125 C 1.804688 0.0507812 1.621094 0.09375 1.421875 0.09375 C 1.113281 0.09375 0.855469 -0.0117188 0.65625 -0.226562 C 0.457031 -0.4375 0.355469 -0.714844 0.355469 -1.058594 C 0.355469 -1.277344 0.40625 -1.464844 0.503906 -1.625 C 0.636719 -1.847656 0.867188 -2.054688 1.199219 -2.25 C 1.527344 -2.445312 2.078125 -2.683594 2.847656 -2.964844 L 2.847656 -3.140625 C 2.847656 -3.585938 2.777344 -3.890625 2.632812 -4.058594 C 2.492188 -4.222656 2.285156 -4.304688 2.015625 -4.304688 C 1.8125 -4.304688 1.648438 -4.25 1.527344 -4.140625 C 1.40625 -4.03125 1.34375 -3.902344 1.34375 -3.757812 L 1.351562 -3.476562 C 1.351562 -3.328125 1.3125 -3.210938 1.238281 -3.128906 C 1.160156 -3.046875 1.0625 -3.007812 0.9375 -3.007812 C 0.816406 -3.007812 0.71875 -3.050781 0.640625 -3.132812 C 0.566406 -3.21875 0.527344 -3.335938 0.527344 -3.480469 C 0.527344 -3.761719 0.671875 -4.019531 0.957031 -4.253906 C 1.242188 -4.488281 1.644531 -4.605469 2.164062 -4.605469 C 2.558594 -4.605469 2.886719 -4.539062 3.140625 -4.40625 C 3.332031 -4.304688 3.472656 -4.144531 3.5625 -3.929688 C 3.625 -3.789062 3.652344 -3.503906 3.652344 -3.070312 L 3.652344 -1.554688 C 3.652344 -1.125 3.660156 -0.863281 3.675781 -0.769531 C 3.691406 -0.671875 3.71875 -0.609375 3.757812 -0.578125 C 3.792969 -0.542969 3.835938 -0.527344 3.886719 -0.527344 C 3.9375 -0.527344 3.984375 -0.539062 4.023438 -0.5625 C 4.09375 -0.605469 4.222656 -0.722656 4.417969 -0.917969 L 4.417969 -0.644531 C 4.054688 -0.15625 3.707031 0.0859375 3.375 0.0859375 C 3.214844 0.0859375 3.085938 0.03125 2.992188 -0.078125 C 2.898438 -0.1875 2.851562 -0.378906 2.847656 -0.644531 M 2.847656 -0.960938 L 2.847656 -2.664062 C 2.355469 -2.46875 2.039062 -2.332031 1.894531 -2.25 C 1.636719 -2.109375 1.453125 -1.957031 1.34375 -1.800781 C 1.230469 -1.644531 1.175781 -1.476562 1.175781 -1.289062 C 1.175781 -1.054688 1.246094 -0.859375 1.386719 -0.707031 C 1.527344 -0.550781 1.6875 -0.472656 1.871094 -0.472656 C 2.117188 -0.472656 2.441406 -0.636719 2.847656 -0.960938 Z "/>
</g>
</g>
</defs>
<g fill="rgb(100%, 100%, 100%)" fill-opacity="1">
<use xlink:href="#glyph-0-0" x="30" y="28.911133"/>
<use xlink:href="#glyph-0-1" x="36" y="28.911133"/>
<use xlink:href="#glyph-0-2" x="41" y="28.911133"/>
<use xlink:href="#glyph-0-3" x="45" y="28.911133"/>
<use xlink:href="#glyph-0-4" x="48" y="28.911133"/>
<use xlink:href="#glyph-0-5" x="55" y="28.911133"/>
<use xlink:href="#glyph-0-6" x="58" y="28.911133"/>
<use xlink:href="#glyph-0-7" x="63" y="28.911133"/>
<use xlink:href="#glyph-0-7" x="67" y="28.911133"/>
<use xlink:href="#glyph-0-3" x="71" y="28.911133"/>
<use xlink:href="#glyph-0-8" x="74" y="28.911133"/>
<use xlink:href="#glyph-0-9" x="80" y="28.911133"/>
<use xlink:href="#glyph-0-10" x="85" y="28.911133"/>
<use xlink:href="#glyph-0-5" x="88" y="28.911133"/>
<use xlink:href="#glyph-0-6" x="91" y="28.911133"/>
<use xlink:href="#glyph-0-11" x="96" y="28.911133"/>
<use xlink:href="#glyph-0-12" x="101" y="28.911133"/>
<use xlink:href="#glyph-0-3" x="106" y="28.911133"/>
<use xlink:href="#glyph-0-13" x="109" y="28.911133"/>
<use xlink:href="#glyph-0-6" x="115" y="28.911133"/>
<use xlink:href="#glyph-0-5" x="120" y="28.911133"/>
<use xlink:href="#glyph-0-14" x="123" y="28.911133"/>
<use xlink:href="#glyph-0-15" x="131" y="28.911133"/>
<use xlink:href="#glyph-0-16" x="136" y="28.911133"/>
<use xlink:href="#glyph-0-17" x="139" y="28.911133"/>
</g>
</svg>
