<?xml version="1.0" encoding="UTF-8"?>
<svg xmlns="http://www.w3.org/2000/svg" xmlns:xlink="http://www.w3.org/1999/xlink" width="854" height="480" viewBox="0 0 854 480">
<defs>
<g>
<g id="glyph-0-0">
<path d="M 3.191406 -2.117188 C 3.289062 -2.011719 3.363281 -1.890625 3.410156 -1.761719 C 3.457031 -1.632812 3.480469 -1.484375 3.480469 -1.3125 C 3.480469 -0.902344 3.328125 -0.566406 3.027344 -0.304688 C 2.726562 -0.0390625 2.351562 0.09375 1.902344 0.09375 C 1.699219 0.09375 1.492188 0.0625 1.285156 0 C 1.078125 -0.0664062 0.902344 -0.144531 0.75 -0.234375 L 0.613281 0.00390625 L 0.351562 0.00390625 L 0.304688 -1.578125 L 0.570312 -1.578125 C 0.625 -1.382812 0.6875 -1.207031 0.761719 -1.050781 C 0.832031 -0.890625 0.929688 -0.746094 1.046875 -0.609375 C 1.160156 -0.480469 1.292969 -0.378906 1.445312 -0.304688 C 1.59375 -0.226562 1.769531 -0.1875 1.96875 -0.1875 C 2.117188 -0.1875 2.25 -0.207031 2.363281 -0.246094 C 2.472656 -0.285156 2.5625 -0.34375 2.632812 -0.414062 C 2.703125 -0.484375 2.753906 -0.570312 2.789062 -0.667969 C 2.820312 -0.761719 2.839844 -0.875 2.839844 -1 C 2.839844 -1.183594 2.785156 -1.355469 2.683594 -1.515625 C 2.578125 -1.675781 2.421875 -1.796875 2.21875 -1.878906 C 2.074219 -1.9375 1.914062 -2 1.730469 -2.066406 C 1.550781 -2.136719 1.390625 -2.199219 1.257812 -2.261719 C 1 -2.378906 0.796875 -2.53125 0.652344 -2.71875 C 0.507812 -2.910156 0.4375 -3.15625 0.4375 -3.464844 C 0.4375 -3.640625 0.472656 -3.804688 0.542969 -3.957031 C 0.617188 -4.105469 0.71875 -4.242188 0.847656 -4.363281 C 0.976562 -4.476562 1.125 -4.5625 1.296875 -4.628906 C 1.46875 -4.691406 1.644531 -4.722656 1.832031 -4.722656 C 2.046875 -4.722656 2.234375 -4.691406 2.402344 -4.625 C 2.570312 -4.5625 2.726562 -4.484375 2.863281 -4.398438 L 2.996094 -4.617188 L 3.257812 -4.617188 L 3.285156 -3.085938 L 3.019531 -3.085938 C 2.972656 -3.261719 2.917969 -3.429688 2.859375 -3.589844 C 2.800781 -3.75 2.722656 -3.894531 2.625 -4.027344 C 2.535156 -4.152344 2.417969 -4.253906 2.285156 -4.328125 C 2.152344 -4.402344 1.984375 -4.441406 1.789062 -4.441406 C 1.585938 -4.441406 1.410156 -4.375 1.261719 -4.242188 C 1.117188 -4.109375 1.046875 -3.949219 1.046875 -3.757812 C 1.046875 -3.558594 1.089844 -3.390625 1.183594 -3.261719 C 1.277344 -3.128906 1.414062 -3.019531 1.589844 -2.9375 C 1.75 -2.859375 1.90625 -2.792969 2.058594 -2.738281 C 2.210938 -2.683594 2.359375 -2.625 2.503906 -2.5625 C 2.632812 -2.503906 2.757812 -2.441406 2.878906 -2.371094 C 3 -2.296875 3.105469 -2.214844 3.191406 -2.117188 Z "/>
</g>
<g id="glyph-0-1">
<path d="M 2.21875 -0.140625 C 2.074219 -0.0820312 1.941406 -0.03125 1.816406 0.0078125 C 1.691406 0.046875 1.535156 0.0703125 1.355469 0.0703125 C 1.085938 0.0703125 0.894531 0 0.785156 -0.136719 C 0.675781 -0.269531 0.621094 -0.460938 0.621094 -0.710938 L 0.621094 -2.882812 L 0.0429688 -2.882812 L 0.0429688 -3.195312 L 0.632812 -3.195312 L 0.632812 -4.195312 L 1.226562 -4.195312 L 1.226562 -3.195312 L 2.148438 -3.195312 L 2.148438 -2.882812 L 1.234375 -2.882812 L 1.234375 -1.089844 C 1.234375 -0.957031 1.238281 -0.84375 1.25 -0.753906 C 1.257812 -0.664062 1.28125 -0.585938 1.316406 -0.515625 C 1.351562 -0.453125 1.40625 -0.40625 1.472656 -0.375 C 1.542969 -0.339844 1.636719 -0.324219 1.753906 -0.324219 C 1.808594 -0.324219 1.886719 -0.332031 1.992188 -0.339844 C 2.097656 -0.351562 2.171875 -0.363281 2.21875 -0.378906 Z "/>
</g>
<g id="glyph-0-2">
<path d="M 3.085938 -0.753906 C 2.953125 -0.5 2.769531 -0.296875 2.546875 -0.144531 C 2.320312 0.0078125 2.0625 0.0859375 1.765625 0.0859375 C 1.507812 0.0859375 1.28125 0.0390625 1.089844 -0.0507812 C 0.894531 -0.144531 0.734375 -0.265625 0.609375 -0.421875 C 0.484375 -0.578125 0.390625 -0.761719 0.328125 -0.96875 C 0.265625 -1.179688 0.234375 -1.398438 0.234375 -1.628906 C 0.234375 -1.839844 0.265625 -2.042969 0.332031 -2.246094 C 0.398438 -2.445312 0.496094 -2.625 0.625 -2.785156 C 0.75 -2.941406 0.902344 -3.066406 1.085938 -3.160156 C 1.269531 -3.253906 1.472656 -3.300781 1.703125 -3.300781 C 1.9375 -3.300781 2.136719 -3.265625 2.304688 -3.191406 C 2.472656 -3.117188 2.605469 -3.015625 2.710938 -2.886719 C 2.8125 -2.765625 2.886719 -2.621094 2.933594 -2.457031 C 2.984375 -2.292969 3.007812 -2.113281 3.007812 -1.921875 L 3.007812 -1.707031 L 0.882812 -1.707031 C 0.882812 -1.496094 0.902344 -1.304688 0.941406 -1.132812 C 0.984375 -0.960938 1.046875 -0.808594 1.132812 -0.679688 C 1.21875 -0.550781 1.328125 -0.453125 1.464844 -0.378906 C 1.601562 -0.304688 1.765625 -0.269531 1.953125 -0.269531 C 2.144531 -0.269531 2.3125 -0.316406 2.453125 -0.40625 C 2.59375 -0.496094 2.726562 -0.660156 2.859375 -0.894531 L 3.085938 -0.753906 M 2.367188 -1.980469 C 2.367188 -2.101562 2.355469 -2.230469 2.335938 -2.367188 C 2.316406 -2.507812 2.28125 -2.621094 2.234375 -2.714844 C 2.1875 -2.816406 2.117188 -2.898438 2.03125 -2.960938 C 1.945312 -3.023438 1.832031 -3.054688 1.695312 -3.054688 C 1.46875 -3.054688 1.277344 -2.957031 1.128906 -2.769531 C 0.976562 -2.582031 0.894531 -2.316406 0.882812 -1.980469 Z "/>
</g>
<g id="glyph-0-3">
<path d="M 3.167969 -2.828125 C 3.296875 -2.675781 3.394531 -2.5 3.464844 -2.300781 C 3.535156 -2.097656 3.570312 -1.871094 3.570312 -1.609375 C 3.570312 -1.355469 3.527344 -1.125 3.445312 -0.917969 C 3.359375 -0.707031 3.246094 -0.527344 3.109375 -0.378906 C 2.964844 -0.230469 2.800781 -0.117188 2.625 -0.0351562 C 2.445312 0.0429688 2.257812 0.0859375 2.058594 0.0859375 C 1.863281 0.0859375 1.707031 0.0625 1.582031 0.0195312 C 1.457031 -0.0234375 1.355469 -0.0742188 1.277344 -0.132812 L 1.253906 -0.132812 L 1.253906 0.832031 C 1.253906 0.910156 1.269531 0.976562 1.296875 1.027344 C 1.328125 1.082031 1.375 1.117188 1.4375 1.140625 C 1.492188 1.160156 1.566406 1.179688 1.660156 1.199219 C 1.757812 1.21875 1.839844 1.226562 1.902344 1.230469 L 1.902344 1.445312 L 0.105469 1.445312 L 0.105469 1.230469 C 0.175781 1.226562 0.238281 1.21875 0.304688 1.214844 C 0.367188 1.207031 0.421875 1.195312 0.472656 1.179688 C 0.539062 1.160156 0.582031 1.121094 0.609375 1.066406 C 0.632812 1.011719 0.648438 0.949219 0.648438 0.875 L 0.648438 -2.539062 C 0.648438 -2.605469 0.632812 -2.667969 0.597656 -2.726562 C 0.566406 -2.789062 0.523438 -2.835938 0.472656 -2.875 C 0.433594 -2.898438 0.378906 -2.921875 0.308594 -2.933594 C 0.238281 -2.949219 0.171875 -2.957031 0.105469 -2.960938 L 0.105469 -3.175781 L 1.203125 -3.25 L 1.246094 -3.210938 L 1.246094 -2.847656 L 1.273438 -2.839844 C 1.386719 -2.972656 1.527344 -3.082031 1.691406 -3.167969 C 1.859375 -3.253906 2.027344 -3.296875 2.191406 -3.296875 C 2.390625 -3.296875 2.574219 -3.253906 2.738281 -3.171875 C 2.90625 -3.085938 3.046875 -2.972656 3.167969 -2.828125 M 2.636719 -0.519531 C 2.722656 -0.65625 2.789062 -0.8125 2.828125 -0.988281 C 2.871094 -1.167969 2.890625 -1.367188 2.890625 -1.585938 C 2.890625 -1.746094 2.875 -1.910156 2.839844 -2.078125 C 2.804688 -2.242188 2.75 -2.390625 2.675781 -2.511719 C 2.601562 -2.640625 2.503906 -2.742188 2.386719 -2.820312 C 2.265625 -2.898438 2.125 -2.9375 1.957031 -2.9375 C 1.796875 -2.9375 1.660156 -2.902344 1.546875 -2.832031 C 1.433594 -2.761719 1.335938 -2.675781 1.253906 -2.578125 L 1.253906 -0.679688 C 1.273438 -0.621094 1.304688 -0.5625 1.347656 -0.496094 C 1.394531 -0.433594 1.441406 -0.378906 1.496094 -0.335938 C 1.566406 -0.28125 1.636719 -0.238281 1.714844 -0.203125 C 1.792969 -0.167969 1.890625 -0.152344 2 -0.152344 C 2.125 -0.152344 2.242188 -0.183594 2.351562 -0.25 C 2.464844 -0.3125 2.5625 -0.402344 2.636719 -0.519531 Z "/>
</g>
<g id="glyph-0-4">
<path d="M 1.488281 -2.777344 C 1.488281 -2.65625 1.445312 -2.554688 1.355469 -2.46875 C 1.269531 -2.378906 1.164062 -2.335938 1.042969 -2.335938 C 0.921875 -2.335938 0.816406 -2.378906 0.726562 -2.46875 C 0.640625 -2.554688 0.59375 -2.65625 0.59375 -2.777344 C 0.59375 -2.898438 0.640625 -3.003906 0.726562 -3.089844 C 0.8125 -3.179688 0.917969 -3.222656 1.042969 -3.222656 C 1.164062 -3.222656 1.269531 -3.179688 1.355469 -3.089844 C 1.445312 -3.003906 1.488281 -2.898438 1.488281 -2.777344 M 1.488281 -0.375 C 1.488281 -0.253906 1.445312 -0.148438 1.355469 -0.0625 C 1.269531 0.0234375 1.164062 0.0664062 1.042969 0.0664062 C 0.921875 0.0664062 0.816406 0.0234375 0.726562 -0.0625 C 0.640625 -0.148438 0.59375 -0.253906 0.59375 -0.375 C 0.59375 -0.496094 0.640625 -0.601562 0.726562 -0.6875 C 0.816406 -0.777344 0.921875 -0.820312 1.042969 -0.820312 C 1.164062 -0.820312 1.269531 -0.777344 1.355469 -0.6875 C 1.445312 -0.601562 1.488281 -0.496094 1.488281 -0.375 Z "/>
</g>
<g id="glyph-0-5">
</g>
<g id="glyph-0-6">
<path d="M 3.527344 -0.292969 L 2.867188 -0.292969 L 2.867188 1.1875 L 2.242188 1.1875 L 2.242188 -0.292969 L 0.160156 -0.292969 L 0.160156 -0.792969 L 2.441406 -3.578125 L 2.867188 -3.578125 L 2.867188 -0.71875 L 3.527344 -0.71875 L 3.527344 -0.292969 M 2.242188 -0.71875 L 2.242188 -2.851562 L 0.480469 -0.71875 Z "/>
</g>
</g>
</defs>
<g fill="rgb(100%, 100%, 0%)" fill-opacity="1">
<use xlink:href="#glyph-0-0" x="30" y="26.112305"/>
<use xlink:href="#glyph-0-1" x="34" y="26.112305"/>
<use xlink:href="#glyph-0-2" x="36" y="26.112305"/>
<use xlink:href="#glyph-0-3" x="39" y="26.112305"/>
<use xlink:href="#glyph-0-4" x="43" y="26.112305"/>
<use xlink:href="#glyph-0-5" x="45" y="26.112305"/>
<use xlink:href="#glyph-0-6" x="47" y="26.112305"/>
</g>
</svg>
