<?xml version="1.0" encoding="UTF-8"?>
<svg xmlns="http://www.w3.org/2000/svg" xmlns:xlink="http://www.w3.org/1999/xlink" width="854" height="480" viewBox="0 0 854 480">
<defs>
<g>
<g id="glyph-0-0">
<path d="M 4.015625 -4.515625 L 4.113281 -3.015625 L 4.015625 -3.015625 C 3.878906 -3.464844 3.6875 -3.785156 3.4375 -3.984375 C 3.1875 -4.183594 2.886719 -4.28125 2.539062 -4.28125 C 2.246094 -4.28125 1.980469 -4.207031 1.746094 -4.058594 C 1.507812 -3.910156 1.320312 -3.671875 1.1875 -3.347656 C 1.050781 -3.019531 0.984375 -2.617188 0.984375 -2.132812 C 0.984375 -1.734375 1.046875 -1.386719 1.175781 -1.09375 C 1.304688 -0.800781 1.496094 -0.574219 1.753906 -0.417969 C 2.011719 -0.265625 2.304688 -0.183594 2.632812 -0.183594 C 2.917969 -0.183594 3.171875 -0.246094 3.390625 -0.371094 C 3.609375 -0.492188 3.851562 -0.734375 4.113281 -1.101562 L 4.214844 -1.035156 C 3.992188 -0.640625 3.734375 -0.355469 3.441406 -0.171875 C 3.144531 0.0078125 2.796875 0.101562 2.390625 0.101562 C 1.65625 0.101562 1.089844 -0.171875 0.691406 -0.710938 C 0.390625 -1.117188 0.242188 -1.589844 0.242188 -2.140625 C 0.242188 -2.578125 0.339844 -2.984375 0.539062 -3.351562 C 0.734375 -3.722656 1.007812 -4.007812 1.351562 -4.210938 C 1.699219 -4.414062 2.078125 -4.515625 2.488281 -4.515625 C 2.804688 -4.515625 3.121094 -4.4375 3.429688 -4.28125 C 3.523438 -4.234375 3.585938 -4.210938 3.625 -4.210938 C 3.683594 -4.210938 3.734375 -4.230469 3.777344 -4.269531 C 3.835938 -4.328125 3.875 -4.410156 3.898438 -4.515625 Z "/>
</g>
<g id="glyph-0-1">
<path d="M 1.082031 -3.070312 L 1.082031 -2.398438 C 1.332031 -2.847656 1.585938 -3.070312 1.847656 -3.070312 C 1.96875 -3.070312 2.066406 -3.035156 2.144531 -2.960938 C 2.222656 -2.886719 2.261719 -2.804688 2.261719 -2.707031 C 2.261719 -2.625 2.234375 -2.550781 2.179688 -2.492188 C 2.121094 -2.433594 2.054688 -2.40625 1.976562 -2.40625 C 1.898438 -2.40625 1.816406 -2.441406 1.71875 -2.519531 C 1.625 -2.59375 1.554688 -2.628906 1.511719 -2.628906 C 1.472656 -2.628906 1.429688 -2.609375 1.382812 -2.566406 C 1.285156 -2.476562 1.183594 -2.328125 1.082031 -2.125 L 1.082031 -0.695312 C 1.082031 -0.53125 1.101562 -0.40625 1.140625 -0.320312 C 1.171875 -0.265625 1.21875 -0.214844 1.292969 -0.175781 C 1.363281 -0.136719 1.46875 -0.117188 1.601562 -0.117188 L 1.601562 0 L 0.0742188 0 L 0.0742188 -0.117188 C 0.226562 -0.117188 0.339844 -0.140625 0.414062 -0.1875 C 0.46875 -0.222656 0.503906 -0.277344 0.527344 -0.355469 C 0.539062 -0.390625 0.542969 -0.496094 0.542969 -0.671875 L 0.542969 -1.824219 C 0.542969 -2.171875 0.535156 -2.378906 0.523438 -2.445312 C 0.507812 -2.511719 0.480469 -2.5625 0.445312 -2.589844 C 0.40625 -2.621094 0.359375 -2.636719 0.304688 -2.636719 C 0.234375 -2.636719 0.160156 -2.621094 0.0742188 -2.585938 L 0.0429688 -2.703125 L 0.945312 -3.070312 Z "/>
</g>
<g id="glyph-0-2">
<path d="M 1.667969 -3.070312 C 2.117188 -3.070312 2.480469 -2.898438 2.753906 -2.554688 C 2.984375 -2.261719 3.101562 -1.925781 3.101562 -1.546875 C 3.101562 -1.277344 3.039062 -1.007812 2.910156 -0.734375 C 2.78125 -0.460938 2.605469 -0.257812 2.382812 -0.117188 C 2.15625 0.0234375 1.90625 0.0898438 1.628906 0.0898438 C 1.179688 0.0898438 0.824219 -0.0898438 0.558594 -0.445312 C 0.335938 -0.746094 0.222656 -1.085938 0.222656 -1.460938 C 0.222656 -1.734375 0.292969 -2.007812 0.429688 -2.277344 C 0.5625 -2.546875 0.742188 -2.746094 0.964844 -2.875 C 1.183594 -3.003906 1.417969 -3.070312 1.667969 -3.070312 M 1.566406 -2.859375 C 1.449219 -2.859375 1.335938 -2.824219 1.21875 -2.753906 C 1.101562 -2.6875 1.007812 -2.566406 0.9375 -2.394531 C 0.867188 -2.222656 0.828125 -2.003906 0.828125 -1.734375 C 0.828125 -1.300781 0.917969 -0.925781 1.089844 -0.613281 C 1.261719 -0.296875 1.488281 -0.140625 1.769531 -0.140625 C 1.980469 -0.140625 2.15625 -0.226562 2.292969 -0.398438 C 2.429688 -0.574219 2.496094 -0.871094 2.496094 -1.296875 C 2.496094 -1.824219 2.382812 -2.242188 2.15625 -2.546875 C 2 -2.753906 1.804688 -2.859375 1.566406 -2.859375 Z "/>
</g>
<g id="glyph-0-3">
<path d="M 2.136719 -3.070312 L 2.136719 -2.054688 L 2.027344 -2.054688 C 1.945312 -2.375 1.839844 -2.589844 1.710938 -2.703125 C 1.582031 -2.820312 1.417969 -2.878906 1.21875 -2.878906 C 1.066406 -2.878906 0.941406 -2.835938 0.847656 -2.757812 C 0.757812 -2.675781 0.710938 -2.585938 0.710938 -2.492188 C 0.710938 -2.367188 0.746094 -2.265625 0.8125 -2.179688 C 0.882812 -2.089844 1.019531 -1.996094 1.222656 -1.894531 L 1.699219 -1.664062 C 2.140625 -1.449219 2.359375 -1.164062 2.359375 -0.8125 C 2.359375 -0.542969 2.257812 -0.324219 2.050781 -0.15625 C 1.847656 0.0078125 1.617188 0.0898438 1.363281 0.0898438 C 1.179688 0.0898438 0.972656 0.0585938 0.738281 -0.0078125 C 0.667969 -0.0273438 0.609375 -0.0390625 0.5625 -0.0390625 C 0.511719 -0.0390625 0.472656 -0.0117188 0.445312 0.046875 L 0.339844 0.046875 L 0.339844 -1.019531 L 0.445312 -1.019531 C 0.507812 -0.714844 0.621094 -0.484375 0.792969 -0.332031 C 0.964844 -0.179688 1.15625 -0.101562 1.371094 -0.101562 C 1.519531 -0.101562 1.640625 -0.144531 1.738281 -0.234375 C 1.832031 -0.320312 1.878906 -0.425781 1.878906 -0.550781 C 1.878906 -0.699219 1.824219 -0.824219 1.71875 -0.925781 C 1.613281 -1.03125 1.40625 -1.160156 1.089844 -1.316406 C 0.777344 -1.472656 0.570312 -1.613281 0.472656 -1.738281 C 0.375 -1.863281 0.324219 -2.019531 0.324219 -2.207031 C 0.324219 -2.453125 0.410156 -2.65625 0.578125 -2.820312 C 0.746094 -2.988281 0.964844 -3.070312 1.230469 -3.070312 C 1.347656 -3.070312 1.488281 -3.042969 1.65625 -2.996094 C 1.765625 -2.960938 1.839844 -2.945312 1.878906 -2.945312 C 1.914062 -2.945312 1.941406 -2.953125 1.960938 -2.96875 C 1.980469 -2.984375 2 -3.015625 2.027344 -3.070312 Z "/>
</g>
<g id="glyph-0-4">
</g>
<g id="glyph-0-5">
<path d="M 1.394531 -4.171875 L 1.394531 -2.429688 L 2.363281 -2.429688 C 2.613281 -2.429688 2.78125 -2.464844 2.867188 -2.542969 C 2.980469 -2.640625 3.042969 -2.816406 3.054688 -3.070312 L 3.175781 -3.070312 L 3.175781 -1.53125 L 3.054688 -1.53125 C 3.027344 -1.746094 2.996094 -1.886719 2.964844 -1.945312 C 2.925781 -2.023438 2.863281 -2.082031 2.773438 -2.125 C 2.683594 -2.167969 2.546875 -2.191406 2.363281 -2.191406 L 1.394531 -2.191406 L 1.394531 -0.734375 C 1.394531 -0.539062 1.402344 -0.421875 1.417969 -0.378906 C 1.4375 -0.335938 1.46875 -0.304688 1.511719 -0.277344 C 1.554688 -0.253906 1.636719 -0.242188 1.757812 -0.242188 L 2.507812 -0.242188 C 2.757812 -0.242188 2.9375 -0.257812 3.050781 -0.292969 C 3.164062 -0.328125 3.269531 -0.394531 3.375 -0.496094 C 3.511719 -0.632812 3.648438 -0.835938 3.789062 -1.105469 L 3.917969 -1.105469 L 3.539062 0 L 0.136719 0 L 0.136719 -0.121094 L 0.292969 -0.121094 C 0.398438 -0.121094 0.496094 -0.144531 0.589844 -0.195312 C 0.660156 -0.230469 0.707031 -0.28125 0.730469 -0.351562 C 0.753906 -0.421875 0.769531 -0.5625 0.769531 -0.777344 L 0.769531 -3.644531 C 0.769531 -3.925781 0.738281 -4.097656 0.683594 -4.164062 C 0.605469 -4.25 0.476562 -4.292969 0.292969 -4.292969 L 0.136719 -4.292969 L 0.136719 -4.414062 L 3.539062 -4.414062 L 3.585938 -3.445312 L 3.460938 -3.445312 C 3.414062 -3.679688 3.363281 -3.839844 3.308594 -3.925781 C 3.253906 -4.011719 3.171875 -4.078125 3.0625 -4.125 C 2.976562 -4.15625 2.824219 -4.171875 2.605469 -4.171875 Z "/>
</g>
<g id="glyph-0-6">
<path d="M 1.078125 -2.4375 C 1.425781 -2.859375 1.761719 -3.070312 2.078125 -3.070312 C 2.238281 -3.070312 2.378906 -3.027344 2.496094 -2.949219 C 2.613281 -2.867188 2.707031 -2.730469 2.777344 -2.546875 C 2.824219 -2.414062 2.847656 -2.214844 2.847656 -1.945312 L 2.847656 -0.671875 C 2.847656 -0.484375 2.863281 -0.355469 2.894531 -0.289062 C 2.917969 -0.234375 2.957031 -0.191406 3.007812 -0.164062 C 3.0625 -0.132812 3.160156 -0.117188 3.304688 -0.117188 L 3.304688 0 L 1.828125 0 L 1.828125 -0.117188 L 1.890625 -0.117188 C 2.03125 -0.117188 2.128906 -0.136719 2.183594 -0.179688 C 2.238281 -0.222656 2.277344 -0.285156 2.296875 -0.367188 C 2.308594 -0.398438 2.3125 -0.503906 2.3125 -0.671875 L 2.3125 -1.894531 C 2.3125 -2.164062 2.277344 -2.363281 2.207031 -2.484375 C 2.136719 -2.609375 2.015625 -2.667969 1.847656 -2.667969 C 1.589844 -2.667969 1.332031 -2.527344 1.078125 -2.246094 L 1.078125 -0.671875 C 1.078125 -0.472656 1.089844 -0.347656 1.113281 -0.300781 C 1.144531 -0.238281 1.183594 -0.191406 1.238281 -0.160156 C 1.292969 -0.132812 1.398438 -0.117188 1.5625 -0.117188 L 1.5625 0 L 0.0859375 0 L 0.0859375 -0.117188 L 0.152344 -0.117188 C 0.304688 -0.117188 0.40625 -0.15625 0.460938 -0.234375 C 0.515625 -0.308594 0.539062 -0.457031 0.539062 -0.671875 L 0.539062 -1.78125 C 0.539062 -2.140625 0.53125 -2.355469 0.515625 -2.433594 C 0.5 -2.511719 0.476562 -2.566406 0.441406 -2.59375 C 0.40625 -2.621094 0.363281 -2.636719 0.304688 -2.636719 C 0.246094 -2.636719 0.171875 -2.621094 0.0859375 -2.585938 L 0.0390625 -2.703125 L 0.9375 -3.070312 L 1.078125 -3.070312 Z "/>
</g>
<g id="glyph-0-7">
<path d="M 1.074219 -3.960938 L 1.074219 -2.980469 L 1.769531 -2.980469 L 1.769531 -2.753906 L 1.074219 -2.753906 L 1.074219 -0.820312 C 1.074219 -0.628906 1.101562 -0.496094 1.15625 -0.429688 C 1.210938 -0.363281 1.285156 -0.328125 1.371094 -0.328125 C 1.441406 -0.328125 1.511719 -0.351562 1.578125 -0.394531 C 1.644531 -0.441406 1.699219 -0.503906 1.734375 -0.59375 L 1.863281 -0.59375 C 1.785156 -0.378906 1.679688 -0.21875 1.539062 -0.113281 C 1.402344 -0.00390625 1.257812 0.046875 1.109375 0.046875 C 1.011719 0.046875 0.914062 0.0195312 0.816406 -0.0351562 C 0.722656 -0.0898438 0.652344 -0.167969 0.605469 -0.273438 C 0.558594 -0.375 0.539062 -0.535156 0.539062 -0.75 L 0.539062 -2.753906 L 0.0664062 -2.753906 L 0.0664062 -2.859375 C 0.183594 -2.910156 0.304688 -2.988281 0.429688 -3.105469 C 0.554688 -3.21875 0.667969 -3.351562 0.765625 -3.507812 C 0.816406 -3.589844 0.882812 -3.742188 0.972656 -3.960938 Z "/>
</g>
<g id="glyph-0-8">
<path d="M -0.0078125 -2.683594 L 0.910156 -3.054688 L 1.035156 -3.054688 L 1.035156 -2.359375 C 1.1875 -2.621094 1.34375 -2.804688 1.5 -2.910156 C 1.652344 -3.015625 1.816406 -3.070312 1.988281 -3.070312 C 2.289062 -3.070312 2.539062 -2.953125 2.738281 -2.71875 C 2.984375 -2.429688 3.105469 -2.058594 3.105469 -1.597656 C 3.105469 -1.085938 2.957031 -0.660156 2.664062 -0.320312 C 2.417969 -0.046875 2.113281 0.0898438 1.746094 0.0898438 C 1.585938 0.0898438 1.445312 0.0703125 1.328125 0.0234375 C 1.242188 -0.0078125 1.144531 -0.0742188 1.035156 -0.171875 L 1.035156 0.734375 C 1.035156 0.941406 1.046875 1.070312 1.074219 1.125 C 1.097656 1.179688 1.140625 1.222656 1.203125 1.257812 C 1.265625 1.289062 1.375 1.304688 1.539062 1.304688 L 1.539062 1.425781 L -0.0234375 1.425781 L -0.0234375 1.304688 L 0.0585938 1.304688 C 0.179688 1.308594 0.28125 1.285156 0.363281 1.238281 C 0.40625 1.214844 0.4375 1.175781 0.460938 1.121094 C 0.484375 1.066406 0.496094 0.933594 0.496094 0.714844 L 0.496094 -2.101562 C 0.496094 -2.296875 0.484375 -2.417969 0.46875 -2.46875 C 0.453125 -2.523438 0.421875 -2.5625 0.386719 -2.585938 C 0.347656 -2.613281 0.296875 -2.625 0.230469 -2.625 C 0.179688 -2.625 0.113281 -2.613281 0.03125 -2.582031 L -0.0078125 -2.683594 M 1.035156 -2.167969 L 1.035156 -1.054688 C 1.035156 -0.8125 1.046875 -0.65625 1.0625 -0.578125 C 1.09375 -0.453125 1.167969 -0.34375 1.289062 -0.246094 C 1.40625 -0.152344 1.554688 -0.105469 1.734375 -0.105469 C 1.953125 -0.105469 2.128906 -0.1875 2.261719 -0.359375 C 2.4375 -0.578125 2.527344 -0.890625 2.527344 -1.292969 C 2.527344 -1.746094 2.425781 -2.097656 2.226562 -2.34375 C 2.085938 -2.511719 1.921875 -2.597656 1.730469 -2.597656 C 1.628906 -2.597656 1.523438 -2.570312 1.421875 -2.519531 C 1.34375 -2.480469 1.214844 -2.363281 1.035156 -2.167969 Z "/>
</g>
<g id="glyph-0-9">
<path d="M 0.0390625 -2.980469 L 1.429688 -2.980469 L 1.429688 -2.859375 L 1.359375 -2.859375 C 1.261719 -2.859375 1.191406 -2.839844 1.140625 -2.796875 C 1.09375 -2.753906 1.066406 -2.703125 1.066406 -2.640625 C 1.066406 -2.554688 1.101562 -2.4375 1.175781 -2.289062 L 1.902344 -0.785156 L 2.566406 -2.429688 C 2.605469 -2.519531 2.625 -2.609375 2.625 -2.695312 C 2.625 -2.734375 2.617188 -2.761719 2.601562 -2.78125 C 2.582031 -2.808594 2.554688 -2.824219 2.519531 -2.839844 C 2.484375 -2.855469 2.417969 -2.859375 2.324219 -2.859375 L 2.324219 -2.980469 L 3.292969 -2.980469 L 3.292969 -2.859375 C 3.214844 -2.851562 3.152344 -2.835938 3.109375 -2.808594 C 3.066406 -2.78125 3.015625 -2.734375 2.964844 -2.664062 C 2.945312 -2.632812 2.910156 -2.546875 2.855469 -2.414062 L 1.640625 0.5625 C 1.523438 0.851562 1.371094 1.070312 1.179688 1.21875 C 0.988281 1.363281 0.808594 1.4375 0.632812 1.4375 C 0.503906 1.4375 0.398438 1.402344 0.316406 1.328125 C 0.234375 1.253906 0.191406 1.167969 0.191406 1.074219 C 0.191406 0.984375 0.222656 0.910156 0.28125 0.855469 C 0.339844 0.800781 0.421875 0.769531 0.527344 0.769531 C 0.597656 0.769531 0.695312 0.796875 0.820312 0.84375 C 0.90625 0.875 0.960938 0.890625 0.984375 0.890625 C 1.046875 0.890625 1.121094 0.859375 1.195312 0.789062 C 1.273438 0.722656 1.351562 0.59375 1.429688 0.398438 L 1.640625 -0.117188 L 0.570312 -2.367188 C 0.539062 -2.433594 0.484375 -2.515625 0.414062 -2.617188 C 0.359375 -2.691406 0.316406 -2.742188 0.28125 -2.769531 C 0.230469 -2.804688 0.148438 -2.835938 0.0390625 -2.859375 Z "/>
</g>
<g id="glyph-0-10">
<path d="M 1.09375 -2.433594 C 1.3125 -2.652344 1.4375 -2.777344 1.476562 -2.808594 C 1.574219 -2.890625 1.679688 -2.957031 1.792969 -3 C 1.90625 -3.046875 2.019531 -3.070312 2.128906 -3.070312 C 2.316406 -3.070312 2.476562 -3.015625 2.609375 -2.90625 C 2.746094 -2.796875 2.835938 -2.640625 2.878906 -2.433594 C 3.105469 -2.695312 3.292969 -2.867188 3.445312 -2.949219 C 3.601562 -3.027344 3.757812 -3.070312 3.921875 -3.070312 C 4.082031 -3.070312 4.222656 -3.027344 4.34375 -2.949219 C 4.464844 -2.867188 4.5625 -2.734375 4.636719 -2.546875 C 4.683594 -2.421875 4.707031 -2.226562 4.707031 -1.957031 L 4.707031 -0.671875 C 4.707031 -0.488281 4.722656 -0.359375 4.75 -0.289062 C 4.769531 -0.242188 4.8125 -0.203125 4.871094 -0.167969 C 4.929688 -0.132812 5.023438 -0.117188 5.15625 -0.117188 L 5.15625 0 L 3.683594 0 L 3.683594 -0.117188 L 3.746094 -0.117188 C 3.875 -0.117188 3.972656 -0.140625 4.046875 -0.191406 C 4.097656 -0.226562 4.132812 -0.28125 4.152344 -0.359375 C 4.164062 -0.394531 4.167969 -0.5 4.167969 -0.671875 L 4.167969 -1.957031 C 4.167969 -2.199219 4.136719 -2.371094 4.078125 -2.46875 C 3.992188 -2.609375 3.859375 -2.679688 3.671875 -2.679688 C 3.558594 -2.679688 3.441406 -2.648438 3.324219 -2.59375 C 3.210938 -2.535156 3.070312 -2.429688 2.902344 -2.273438 L 2.898438 -2.234375 L 2.902344 -2.097656 L 2.902344 -0.671875 C 2.902344 -0.46875 2.914062 -0.34375 2.9375 -0.292969 C 2.960938 -0.242188 3.003906 -0.203125 3.066406 -0.167969 C 3.128906 -0.132812 3.238281 -0.117188 3.386719 -0.117188 L 3.386719 0 L 1.882812 0 L 1.882812 -0.117188 C 2.046875 -0.117188 2.160156 -0.136719 2.222656 -0.175781 C 2.285156 -0.214844 2.328125 -0.273438 2.351562 -0.351562 C 2.359375 -0.386719 2.367188 -0.496094 2.367188 -0.671875 L 2.367188 -1.957031 C 2.367188 -2.199219 2.332031 -2.375 2.257812 -2.480469 C 2.164062 -2.621094 2.03125 -2.6875 1.859375 -2.6875 C 1.742188 -2.6875 1.625 -2.65625 1.511719 -2.59375 C 1.332031 -2.5 1.191406 -2.390625 1.09375 -2.273438 L 1.09375 -0.671875 C 1.09375 -0.476562 1.105469 -0.351562 1.132812 -0.292969 C 1.160156 -0.234375 1.203125 -0.191406 1.253906 -0.160156 C 1.308594 -0.132812 1.414062 -0.117188 1.578125 -0.117188 L 1.578125 0 L 0.105469 0 L 0.105469 -0.117188 C 0.242188 -0.117188 0.335938 -0.132812 0.390625 -0.160156 C 0.445312 -0.191406 0.484375 -0.238281 0.515625 -0.300781 C 0.542969 -0.363281 0.554688 -0.488281 0.554688 -0.671875 L 0.554688 -1.8125 C 0.554688 -2.140625 0.546875 -2.351562 0.527344 -2.449219 C 0.511719 -2.519531 0.488281 -2.570312 0.457031 -2.597656 C 0.421875 -2.625 0.378906 -2.636719 0.320312 -2.636719 C 0.261719 -2.636719 0.1875 -2.621094 0.105469 -2.585938 L 0.0546875 -2.703125 L 0.953125 -3.070312 L 1.09375 -3.070312 Z "/>
</g>
<g id="glyph-0-11">
<path d="M 0.710938 -1.859375 C 0.707031 -1.414062 0.816406 -1.070312 1.03125 -0.816406 C 1.25 -0.566406 1.503906 -0.4375 1.796875 -0.4375 C 1.992188 -0.4375 2.160156 -0.492188 2.304688 -0.601562 C 2.449219 -0.707031 2.570312 -0.890625 2.667969 -1.152344 L 2.769531 -1.085938 C 2.722656 -0.789062 2.59375 -0.519531 2.375 -0.273438 C 2.152344 -0.03125 1.878906 0.0898438 1.550781 0.0898438 C 1.191406 0.0898438 0.886719 -0.046875 0.628906 -0.328125 C 0.375 -0.605469 0.246094 -0.980469 0.246094 -1.453125 C 0.246094 -1.960938 0.378906 -2.359375 0.640625 -2.644531 C 0.902344 -2.929688 1.230469 -3.074219 1.625 -3.074219 C 1.957031 -3.074219 2.234375 -2.960938 2.449219 -2.742188 C 2.664062 -2.523438 2.769531 -2.226562 2.769531 -1.859375 L 0.710938 -1.859375 M 0.710938 -2.046875 L 2.089844 -2.046875 C 2.078125 -2.238281 2.054688 -2.375 2.023438 -2.453125 C 1.96875 -2.574219 1.886719 -2.667969 1.777344 -2.738281 C 1.671875 -2.808594 1.558594 -2.839844 1.441406 -2.839844 C 1.261719 -2.839844 1.101562 -2.773438 0.957031 -2.632812 C 0.816406 -2.492188 0.734375 -2.296875 0.710938 -2.046875 Z "/>
</g>
<g id="glyph-0-12">
<path d="M 1.898438 -0.429688 C 1.589844 -0.191406 1.398438 -0.0546875 1.320312 -0.0195312 C 1.203125 0.0351562 1.078125 0.0625 0.945312 0.0625 C 0.742188 0.0625 0.570312 -0.0078125 0.4375 -0.148438 C 0.304688 -0.289062 0.238281 -0.476562 0.238281 -0.707031 C 0.238281 -0.851562 0.269531 -0.976562 0.335938 -1.085938 C 0.425781 -1.230469 0.578125 -1.371094 0.800781 -1.5 C 1.019531 -1.628906 1.386719 -1.789062 1.898438 -1.976562 L 1.898438 -2.09375 C 1.898438 -2.390625 1.851562 -2.59375 1.757812 -2.703125 C 1.660156 -2.816406 1.523438 -2.871094 1.34375 -2.871094 C 1.207031 -2.871094 1.097656 -2.835938 1.019531 -2.761719 C 0.9375 -2.6875 0.894531 -2.601562 0.894531 -2.507812 L 0.902344 -2.316406 C 0.902344 -2.21875 0.875 -2.140625 0.824219 -2.085938 C 0.773438 -2.03125 0.707031 -2.003906 0.625 -2.003906 C 0.542969 -2.003906 0.480469 -2.035156 0.429688 -2.089844 C 0.378906 -2.144531 0.351562 -2.222656 0.351562 -2.320312 C 0.351562 -2.507812 0.445312 -2.679688 0.636719 -2.835938 C 0.828125 -2.992188 1.097656 -3.070312 1.441406 -3.070312 C 1.707031 -3.070312 1.921875 -3.023438 2.09375 -2.9375 C 2.222656 -2.867188 2.316406 -2.761719 2.375 -2.621094 C 2.414062 -2.527344 2.433594 -2.335938 2.433594 -2.046875 L 2.433594 -1.035156 C 2.433594 -0.75 2.441406 -0.578125 2.453125 -0.511719 C 2.460938 -0.449219 2.480469 -0.40625 2.503906 -0.382812 C 2.53125 -0.363281 2.558594 -0.351562 2.589844 -0.351562 C 2.625 -0.351562 2.65625 -0.359375 2.683594 -0.375 C 2.726562 -0.402344 2.816406 -0.480469 2.945312 -0.613281 L 2.945312 -0.429688 C 2.703125 -0.105469 2.46875 0.0585938 2.25 0.0585938 C 2.144531 0.0585938 2.058594 0.0234375 1.996094 -0.0507812 C 1.933594 -0.125 1.898438 -0.25 1.898438 -0.429688 M 1.898438 -0.640625 L 1.898438 -1.777344 C 1.570312 -1.648438 1.359375 -1.554688 1.261719 -1.5 C 1.089844 -1.40625 0.96875 -1.304688 0.894531 -1.203125 C 0.820312 -1.097656 0.785156 -0.984375 0.785156 -0.859375 C 0.785156 -0.703125 0.832031 -0.574219 0.925781 -0.46875 C 1.019531 -0.367188 1.125 -0.316406 1.246094 -0.316406 C 1.410156 -0.316406 1.628906 -0.425781 1.898438 -0.640625 Z "/>
</g>
<g id="glyph-0-13">
<path d="M 2.820312 -2.980469 L 2.820312 -1.175781 C 2.820312 -0.828125 2.832031 -0.617188 2.847656 -0.542969 C 2.863281 -0.464844 2.890625 -0.410156 2.925781 -0.378906 C 2.960938 -0.351562 3.003906 -0.335938 3.050781 -0.335938 C 3.117188 -0.335938 3.191406 -0.355469 3.277344 -0.390625 L 3.324219 -0.277344 L 2.429688 0.0898438 L 2.285156 0.0898438 L 2.285156 -0.539062 C 2.027344 -0.261719 1.832031 -0.0859375 1.699219 -0.015625 C 1.566406 0.0546875 1.421875 0.0898438 1.273438 0.0898438 C 1.105469 0.0898438 0.960938 0.0429688 0.839844 -0.0546875 C 0.714844 -0.148438 0.628906 -0.273438 0.582031 -0.425781 C 0.535156 -0.578125 0.511719 -0.792969 0.511719 -1.070312 L 0.511719 -2.402344 C 0.511719 -2.542969 0.496094 -2.640625 0.464844 -2.695312 C 0.433594 -2.75 0.390625 -2.792969 0.332031 -2.820312 C 0.269531 -2.851562 0.164062 -2.863281 0.0078125 -2.859375 L 0.0078125 -2.980469 L 1.050781 -2.980469 L 1.050781 -0.984375 C 1.050781 -0.707031 1.101562 -0.527344 1.195312 -0.4375 C 1.292969 -0.351562 1.410156 -0.308594 1.546875 -0.308594 C 1.640625 -0.308594 1.746094 -0.339844 1.863281 -0.398438 C 1.980469 -0.457031 2.121094 -0.566406 2.285156 -0.730469 L 2.285156 -2.421875 C 2.285156 -2.589844 2.253906 -2.707031 2.191406 -2.765625 C 2.128906 -2.824219 2 -2.855469 1.804688 -2.859375 L 1.804688 -2.980469 Z "/>
</g>
<g id="glyph-0-14">
<path d="M 1.085938 -4.628906 L 1.085938 -2.449219 C 1.324219 -2.710938 1.515625 -2.882812 1.65625 -2.957031 C 1.796875 -3.03125 1.9375 -3.070312 2.078125 -3.070312 C 2.25 -3.070312 2.394531 -3.023438 2.515625 -2.929688 C 2.636719 -2.835938 2.726562 -2.691406 2.785156 -2.492188 C 2.828125 -2.351562 2.847656 -2.097656 2.847656 -1.726562 L 2.847656 -0.671875 C 2.847656 -0.484375 2.863281 -0.355469 2.894531 -0.285156 C 2.914062 -0.234375 2.953125 -0.191406 3.003906 -0.164062 C 3.054688 -0.132812 3.152344 -0.117188 3.289062 -0.117188 L 3.289062 0 L 1.824219 0 L 1.824219 -0.117188 L 1.894531 -0.117188 C 2.035156 -0.117188 2.128906 -0.136719 2.183594 -0.179688 C 2.238281 -0.222656 2.277344 -0.285156 2.296875 -0.367188 C 2.304688 -0.402344 2.308594 -0.503906 2.308594 -0.671875 L 2.308594 -1.726562 C 2.308594 -2.054688 2.292969 -2.269531 2.257812 -2.371094 C 2.222656 -2.472656 2.171875 -2.546875 2.097656 -2.597656 C 2.023438 -2.648438 1.933594 -2.675781 1.828125 -2.675781 C 1.722656 -2.675781 1.613281 -2.648438 1.496094 -2.589844 C 1.382812 -2.535156 1.246094 -2.421875 1.085938 -2.25 L 1.085938 -0.671875 C 1.085938 -0.46875 1.09375 -0.34375 1.117188 -0.292969 C 1.140625 -0.242188 1.183594 -0.203125 1.246094 -0.167969 C 1.308594 -0.132812 1.414062 -0.117188 1.566406 -0.117188 L 1.566406 0 L 0.0859375 0 L 0.0859375 -0.117188 C 0.21875 -0.117188 0.324219 -0.136719 0.398438 -0.179688 C 0.445312 -0.199219 0.476562 -0.242188 0.503906 -0.304688 C 0.53125 -0.363281 0.542969 -0.488281 0.542969 -0.671875 L 0.542969 -3.371094 C 0.542969 -3.714844 0.535156 -3.921875 0.519531 -4 C 0.503906 -4.078125 0.476562 -4.132812 0.445312 -4.160156 C 0.410156 -4.1875 0.367188 -4.203125 0.308594 -4.203125 C 0.265625 -4.203125 0.191406 -4.183594 0.0859375 -4.148438 L 0.0429688 -4.265625 L 0.933594 -4.628906 Z "/>
</g>
<g id="glyph-0-15">
<path d="M 0.0429688 -2.980469 L 1.292969 -2.980469 L 1.292969 -2.859375 C 1.175781 -2.851562 1.101562 -2.832031 1.066406 -2.800781 C 1.03125 -2.765625 1.011719 -2.71875 1.011719 -2.660156 C 1.011719 -2.59375 1.03125 -2.511719 1.066406 -2.414062 L 1.707031 -0.699219 L 2.347656 -2.097656 L 2.179688 -2.535156 C 2.125 -2.664062 2.058594 -2.757812 1.972656 -2.804688 C 1.925781 -2.835938 1.835938 -2.855469 1.707031 -2.859375 L 1.707031 -2.980469 L 3.125 -2.980469 L 3.125 -2.859375 C 2.96875 -2.855469 2.859375 -2.828125 2.792969 -2.777344 C 2.75 -2.742188 2.726562 -2.6875 2.726562 -2.609375 C 2.726562 -2.566406 2.738281 -2.523438 2.753906 -2.476562 L 3.429688 -0.765625 L 4.058594 -2.414062 C 4.101562 -2.53125 4.125 -2.625 4.125 -2.695312 C 4.125 -2.738281 4.101562 -2.773438 4.0625 -2.804688 C 4.019531 -2.839844 3.933594 -2.855469 3.8125 -2.859375 L 3.8125 -2.980469 L 4.753906 -2.980469 L 4.753906 -2.859375 C 4.5625 -2.832031 4.425781 -2.703125 4.335938 -2.476562 L 3.339844 0.0898438 L 3.207031 0.0898438 L 2.460938 -1.8125 L 1.589844 0.0898438 L 1.472656 0.0898438 L 0.515625 -2.414062 C 0.453125 -2.574219 0.390625 -2.679688 0.328125 -2.734375 C 0.269531 -2.792969 0.171875 -2.832031 0.0429688 -2.859375 Z "/>
</g>
<g id="glyph-0-16">
<path d="M 1.234375 -4.628906 L 1.234375 -0.671875 C 1.234375 -0.488281 1.246094 -0.363281 1.273438 -0.304688 C 1.300781 -0.242188 1.34375 -0.195312 1.398438 -0.164062 C 1.457031 -0.132812 1.5625 -0.117188 1.714844 -0.117188 L 1.714844 0 L 0.253906 0 L 0.253906 -0.117188 C 0.390625 -0.117188 0.484375 -0.132812 0.535156 -0.160156 C 0.582031 -0.1875 0.621094 -0.234375 0.652344 -0.300781 C 0.679688 -0.363281 0.691406 -0.488281 0.691406 -0.671875 L 0.691406 -3.382812 C 0.691406 -3.71875 0.6875 -3.925781 0.671875 -4.003906 C 0.65625 -4.078125 0.632812 -4.132812 0.597656 -4.160156 C 0.5625 -4.1875 0.519531 -4.203125 0.46875 -4.203125 C 0.414062 -4.203125 0.339844 -4.183594 0.253906 -4.148438 L 0.199219 -4.265625 L 1.085938 -4.628906 Z "/>
</g>
<g id="glyph-0-17">
<path d="M 2.847656 -3.070312 L 2.847656 0.765625 C 2.847656 0.957031 2.859375 1.078125 2.886719 1.132812 C 2.914062 1.1875 2.953125 1.230469 3.007812 1.257812 C 3.066406 1.289062 3.171875 1.304688 3.332031 1.304688 L 3.332031 1.425781 L 1.828125 1.425781 L 1.828125 1.304688 L 1.890625 1.304688 C 2.011719 1.304688 2.105469 1.289062 2.167969 1.253906 C 2.210938 1.230469 2.246094 1.1875 2.273438 1.125 C 2.296875 1.0625 2.3125 0.941406 2.3125 0.765625 L 2.3125 -0.515625 C 2.113281 -0.28125 1.941406 -0.125 1.792969 -0.0390625 C 1.644531 0.046875 1.492188 0.0898438 1.335938 0.0898438 C 1.046875 0.0898438 0.789062 -0.0390625 0.5625 -0.304688 C 0.335938 -0.566406 0.222656 -0.917969 0.222656 -1.355469 C 0.222656 -1.863281 0.371094 -2.273438 0.671875 -2.59375 C 0.96875 -2.910156 1.332031 -3.070312 1.753906 -3.070312 C 1.878906 -3.070312 1.992188 -3.050781 2.097656 -3.015625 C 2.199219 -2.984375 2.292969 -2.929688 2.375 -2.859375 C 2.503906 -2.921875 2.621094 -2.992188 2.738281 -3.070312 L 2.847656 -3.070312 M 2.3125 -0.722656 L 2.3125 -2.121094 C 2.3125 -2.285156 2.289062 -2.414062 2.246094 -2.507812 C 2.207031 -2.601562 2.128906 -2.679688 2.023438 -2.742188 C 1.914062 -2.808594 1.789062 -2.839844 1.652344 -2.839844 C 1.410156 -2.839844 1.203125 -2.738281 1.027344 -2.53125 C 0.855469 -2.328125 0.769531 -2.015625 0.769531 -1.59375 C 0.769531 -1.195312 0.855469 -0.886719 1.035156 -0.679688 C 1.210938 -0.472656 1.421875 -0.367188 1.671875 -0.367188 C 1.800781 -0.367188 1.914062 -0.394531 2.015625 -0.449219 C 2.113281 -0.507812 2.214844 -0.597656 2.3125 -0.722656 Z "/>
</g>
<g id="glyph-0-18">
<path d="M 0.0859375 -2.980469 L 1.492188 -2.980469 L 1.492188 -2.859375 C 1.402344 -2.859375 1.339844 -2.847656 1.304688 -2.816406 C 1.269531 -2.785156 1.25 -2.746094 1.25 -2.695312 C 1.25 -2.644531 1.289062 -2.5625 1.363281 -2.453125 C 1.386719 -2.417969 1.421875 -2.367188 1.472656 -2.292969 L 1.683594 -1.953125 L 1.925781 -2.292969 C 2.082031 -2.507812 2.160156 -2.640625 2.160156 -2.699219 C 2.160156 -2.742188 2.144531 -2.78125 2.105469 -2.8125 C 2.070312 -2.84375 2.007812 -2.859375 1.925781 -2.859375 L 1.925781 -2.980469 L 2.9375 -2.980469 L 2.9375 -2.859375 C 2.828125 -2.855469 2.738281 -2.824219 2.660156 -2.773438 C 2.554688 -2.699219 2.40625 -2.539062 2.222656 -2.292969 L 1.816406 -1.746094 L 2.558594 -0.679688 C 2.742188 -0.417969 2.871094 -0.261719 2.949219 -0.207031 C 3.027344 -0.152344 3.128906 -0.125 3.25 -0.117188 L 3.25 0 L 1.84375 0 L 1.84375 -0.117188 C 1.941406 -0.117188 2.019531 -0.140625 2.074219 -0.183594 C 2.113281 -0.210938 2.136719 -0.253906 2.136719 -0.304688 C 2.136719 -0.351562 2.066406 -0.476562 1.925781 -0.679688 L 1.492188 -1.316406 L 1.011719 -0.679688 C 0.863281 -0.484375 0.789062 -0.367188 0.789062 -0.328125 C 0.789062 -0.277344 0.816406 -0.230469 0.863281 -0.1875 C 0.914062 -0.144531 0.984375 -0.121094 1.085938 -0.117188 L 1.085938 0 L 0.109375 0 L 0.109375 -0.117188 C 0.1875 -0.128906 0.257812 -0.15625 0.316406 -0.199219 C 0.398438 -0.261719 0.539062 -0.421875 0.730469 -0.679688 L 1.355469 -1.511719 L 0.789062 -2.332031 C 0.628906 -2.566406 0.507812 -2.710938 0.417969 -2.773438 C 0.332031 -2.832031 0.21875 -2.859375 0.0859375 -2.859375 Z "/>
</g>
<g id="glyph-0-19">
<path d="M 0.964844 -4.628906 C 1.058594 -4.628906 1.136719 -4.597656 1.199219 -4.53125 C 1.261719 -4.46875 1.296875 -4.390625 1.296875 -4.300781 C 1.296875 -4.210938 1.261719 -4.132812 1.199219 -4.066406 C 1.136719 -4 1.058594 -3.96875 0.964844 -3.96875 C 0.875 -3.96875 0.796875 -4 0.730469 -4.066406 C 0.667969 -4.132812 0.632812 -4.210938 0.632812 -4.300781 C 0.632812 -4.390625 0.667969 -4.46875 0.730469 -4.53125 C 0.792969 -4.597656 0.875 -4.628906 0.964844 -4.628906 M 1.238281 -3.070312 L 1.238281 -0.671875 C 1.238281 -0.488281 1.25 -0.363281 1.277344 -0.300781 C 1.304688 -0.238281 1.34375 -0.191406 1.398438 -0.164062 C 1.453125 -0.132812 1.546875 -0.117188 1.6875 -0.117188 L 1.6875 0 L 0.242188 0 L 0.242188 -0.117188 C 0.386719 -0.117188 0.484375 -0.132812 0.535156 -0.160156 C 0.582031 -0.1875 0.625 -0.234375 0.652344 -0.300781 C 0.683594 -0.363281 0.695312 -0.488281 0.695312 -0.671875 L 0.695312 -1.824219 C 0.695312 -2.144531 0.6875 -2.355469 0.667969 -2.453125 C 0.652344 -2.519531 0.628906 -2.570312 0.59375 -2.597656 C 0.5625 -2.625 0.519531 -2.636719 0.460938 -2.636719 C 0.402344 -2.636719 0.328125 -2.621094 0.242188 -2.585938 L 0.195312 -2.703125 L 1.09375 -3.070312 Z "/>
</g>
</g>
</defs>
<g fill="rgb(100%, 100%, 0%)" fill-opacity="1">
<use xlink:href="#glyph-0-0" x="30" y="25.94043"/>
<use xlink:href="#glyph-0-1" x="34" y="25.94043"/>
<use xlink:href="#glyph-0-2" x="36" y="25.94043"/>
<use xlink:href="#glyph-0-3" x="39" y="25.94043"/>
<use xlink:href="#glyph-0-3" x="42" y="25.94043"/>
<use xlink:href="#glyph-0-4" x="45" y="25.94043"/>
<use xlink:href="#glyph-0-5" x="47" y="25.94043"/>
<use xlink:href="#glyph-0-6" x="51" y="25.94043"/>
<use xlink:href="#glyph-0-7" x="54" y="25.94043"/>
<use xlink:href="#glyph-0-1" x="56" y="25.94043"/>
<use xlink:href="#glyph-0-2" x="58" y="25.94043"/>
<use xlink:href="#glyph-0-8" x="61" y="25.94043"/>
<use xlink:href="#glyph-0-9" x="64" y="25.94043"/>
<use xlink:href="#glyph-0-4" x="67" y="25.94043"/>
<use xlink:href="#glyph-0-10" x="69" y="25.94043"/>
<use xlink:href="#glyph-0-11" x="74" y="25.94043"/>
<use xlink:href="#glyph-0-12" x="77" y="25.94043"/>
<use xlink:href="#glyph-0-3" x="80" y="25.94043"/>
<use xlink:href="#glyph-0-13" x="83" y="25.94043"/>
<use xlink:href="#glyph-0-1" x="86" y="25.94043"/>
<use xlink:href="#glyph-0-11" x="88" y="25.94043"/>
<use xlink:href="#glyph-0-3" x="91" y="25.94043"/>
<use xlink:href="#glyph-0-4" x="94" y="25.94043"/>
<use xlink:href="#glyph-0-14" x="96" y="25.94043"/>
<use xlink:href="#glyph-0-2" x="99" y="25.94043"/>
<use xlink:href="#glyph-0-15" x="102" y="25.94043"/>
<use xlink:href="#glyph-0-4" x="107" y="25.94043"/>
<use xlink:href="#glyph-0-15" x="109" y="25.94043"/>
<use xlink:href="#glyph-0-11" x="114" y="25.94043"/>
<use xlink:href="#glyph-0-16" x="117" y="25.94043"/>
<use xlink:href="#glyph-0-16" x="119" y="25.94043"/>
<use xlink:href="#glyph-0-4" x="121" y="25.94043"/>
<use xlink:href="#glyph-0-17" x="123" y="25.94043"/>
<use xlink:href="#glyph-0-4" x="126" y="25.94043"/>
<use xlink:href="#glyph-0-12" x="128" y="25.94043"/>
<use xlink:href="#glyph-0-8" x="131" y="25.94043"/>
<use xlink:href="#glyph-0-8" x="134" y="25.94043"/>
<use xlink:href="#glyph-0-1" x="137" y="25.94043"/>
<use xlink:href="#glyph-0-2" x="139" y="25.94043"/>
<use xlink:href="#glyph-0-18" x="142" y="25.94043"/>
<use xlink:href="#glyph-0-19" x="145" y="25.94043"/>
<use xlink:href="#glyph-0-10" x="147" y="25.94043"/>
<use xlink:href="#glyph-0-12" x="152" y="25.94043"/>
<use xlink:href="#glyph-0-7" x="155" y="25.94043"/>
<use xlink:href="#glyph-0-11" x="157" y="25.94043"/>
<use xlink:href="#glyph-0-3" x="160" y="25.94043"/>
<use xlink:href="#glyph-0-4" x="163" y="25.94043"/>
<use xlink:href="#glyph-0-8" x="165" y="25.94043"/>
</g>
</svg>
