<?xml version="1.0" encoding="UTF-8"?>
<svg xmlns="http://www.w3.org/2000/svg" xmlns:xlink="http://www.w3.org/1999/xlink" width="1920" height="1080" viewBox="0 0 1920 1080">
<defs>
<g>
<g id="glyph-0-0">
<path d="M 0.0429688 -2.980469 L 1.292969 -2.980469 L 1.292969 -2.859375 C 1.175781 -2.851562 1.101562 -2.832031 1.066406 -2.800781 C 1.03125 -2.765625 1.011719 -2.71875 1.011719 -2.660156 C 1.011719 -2.59375 1.03125 -2.511719 1.066406 -2.414062 L 1.707031 -0.699219 L 2.347656 -2.097656 L 2.179688 -2.535156 C 2.125 -2.664062 2.058594 -2.757812 1.972656 -2.804688 C 1.925781 -2.835938 1.835938 -2.855469 1.707031 -2.859375 L 1.707031 -2.980469 L 3.125 -2.980469 L 3.125 -2.859375 C 2.96875 -2.855469 2.859375 -2.828125 2.792969 -2.777344 C 2.75 -2.742188 2.726562 -2.6875 2.726562 -2.609375 C 2.726562 -2.566406 2.738281 -2.523438 2.753906 -2.476562 L 3.429688 -0.765625 L 4.058594 -2.414062 C 4.101562 -2.53125 4.125 -2.625 4.125 -2.695312 C 4.125 -2.738281 4.101562 -2.773438 4.0625 -2.804688 C 4.019531 -2.839844 3.933594 -2.855469 3.8125 -2.859375 L 3.8125 -2.980469 L 4.753906 -2.980469 L 4.753906 -2.859375 C 4.5625 -2.832031 4.425781 -2.703125 4.335938 -2.476562 L 3.339844 0.0898438 L 3.207031 0.0898438 L 2.460938 -1.8125 L 1.589844 0.0898438 L 1.472656 0.0898438 L 0.515625 -2.414062 C 0.453125 -2.574219 0.390625 -2.679688 0.328125 -2.734375 C 0.269531 -2.792969 0.171875 -2.832031 0.0429688 -2.859375 Z "/>
</g>
<g id="glyph-0-1">
</g>
<g id="glyph-0-2">
<path d="M 0.121094 -2.875 L 3.632812 -2.875 L 3.632812 -2.605469 L 0.121094 -2.605469 L 0.121094 -2.875 M 0.121094 -1.8125 L 3.632812 -1.8125 L 3.632812 -1.546875 L 0.121094 -1.546875 Z "/>
</g>
<g id="glyph-0-3">
<path d="M 0.78125 -3.980469 L 1.855469 -4.503906 L 1.960938 -4.503906 L 1.960938 -0.777344 C 1.960938 -0.53125 1.972656 -0.375 1.992188 -0.316406 C 2.015625 -0.253906 2.058594 -0.207031 2.121094 -0.175781 C 2.1875 -0.144531 2.320312 -0.125 2.519531 -0.121094 L 2.519531 0 L 0.859375 0 L 0.859375 -0.121094 C 1.066406 -0.125 1.203125 -0.144531 1.261719 -0.175781 C 1.324219 -0.207031 1.367188 -0.246094 1.390625 -0.300781 C 1.414062 -0.355469 1.425781 -0.511719 1.425781 -0.777344 L 1.425781 -3.160156 C 1.425781 -3.480469 1.414062 -3.6875 1.394531 -3.777344 C 1.378906 -3.847656 1.351562 -3.898438 1.308594 -3.933594 C 1.269531 -3.964844 1.222656 -3.980469 1.164062 -3.980469 C 1.085938 -3.980469 0.972656 -3.949219 0.828125 -3.878906 Z "/>
</g>
<g id="glyph-0-4">
<path d="M 0.832031 -0.632812 C 0.933594 -0.632812 1.019531 -0.597656 1.089844 -0.527344 C 1.160156 -0.457031 1.195312 -0.371094 1.195312 -0.269531 C 1.195312 -0.171875 1.160156 -0.0859375 1.089844 -0.015625 C 1.019531 0.0546875 0.933594 0.0898438 0.832031 0.0898438 C 0.734375 0.0898438 0.648438 0.0546875 0.578125 -0.015625 C 0.507812 -0.0859375 0.472656 -0.171875 0.472656 -0.269531 C 0.472656 -0.371094 0.507812 -0.457031 0.578125 -0.527344 C 0.648438 -0.597656 0.734375 -0.632812 0.832031 -0.632812 Z "/>
</g>
<g id="glyph-0-5">
<path d="M 0.351562 0.0898438 L 0.351562 -0.0273438 C 0.632812 -0.0351562 0.894531 -0.0976562 1.140625 -0.226562 C 1.382812 -0.351562 1.617188 -0.574219 1.84375 -0.890625 C 2.070312 -1.207031 2.230469 -1.558594 2.316406 -1.9375 C 1.976562 -1.71875 1.667969 -1.609375 1.394531 -1.609375 C 1.082031 -1.609375 0.816406 -1.726562 0.59375 -1.96875 C 0.375 -2.207031 0.265625 -2.527344 0.265625 -2.921875 C 0.265625 -3.308594 0.375 -3.652344 0.59375 -3.953125 C 0.863281 -4.320312 1.210938 -4.503906 1.640625 -4.503906 C 2.003906 -4.503906 2.3125 -4.355469 2.570312 -4.054688 C 2.886719 -3.683594 3.046875 -3.226562 3.046875 -2.683594 C 3.046875 -2.191406 2.925781 -1.734375 2.683594 -1.308594 C 2.445312 -0.886719 2.109375 -0.535156 1.679688 -0.253906 C 1.332031 -0.0234375 0.949219 0.0898438 0.539062 0.0898438 L 0.351562 0.0898438 M 2.371094 -2.179688 C 2.410156 -2.460938 2.429688 -2.683594 2.429688 -2.855469 C 2.429688 -3.066406 2.390625 -3.292969 2.320312 -3.535156 C 2.25 -3.78125 2.148438 -3.96875 2.015625 -4.097656 C 1.886719 -4.226562 1.734375 -4.292969 1.570312 -4.292969 C 1.375 -4.292969 1.207031 -4.207031 1.0625 -4.03125 C 0.914062 -3.859375 0.84375 -3.601562 0.84375 -3.257812 C 0.84375 -2.800781 0.941406 -2.441406 1.132812 -2.183594 C 1.273438 -1.996094 1.449219 -1.902344 1.652344 -1.902344 C 1.753906 -1.902344 1.871094 -1.929688 2.007812 -1.976562 C 2.144531 -2.023438 2.265625 -2.089844 2.371094 -2.179688 Z "/>
</g>
<g id="glyph-0-6">
<path d="M 3.101562 -1.628906 L 3.101562 -1.164062 L 2.507812 -1.164062 L 2.507812 0 L 1.972656 0 L 1.972656 -1.164062 L 0.105469 -1.164062 L 0.105469 -1.582031 L 2.152344 -4.503906 L 2.507812 -4.503906 L 2.507812 -1.628906 L 3.101562 -1.628906 M 1.972656 -1.628906 L 1.972656 -3.816406 L 0.421875 -1.628906 Z "/>
</g>
</g>
</defs>
<g fill="rgb(98.823529%, 38.431373%, 33.333333%)" fill-opacity="1">
<use xlink:href="#glyph-0-0" x="30" y="25.94043"/>
<use xlink:href="#glyph-0-1" x="35" y="25.94043"/>
<use xlink:href="#glyph-0-2" x="37" y="25.94043"/>
<use xlink:href="#glyph-0-1" x="41" y="25.94043"/>
<use xlink:href="#glyph-0-3" x="43" y="25.94043"/>
<use xlink:href="#glyph-0-4" x="46" y="25.94043"/>
<use xlink:href="#glyph-0-5" x="48" y="25.94043"/>
<use xlink:href="#glyph-0-6" x="51" y="25.94043"/>
</g>
</svg>
